<svg width="20" height="20" viewBox="0 0 20 20" fill="none" xmlns="http://www.w3.org/2000/svg">
<path d="M5.41906 5.81274C5.65442 3.4591 7.63496 1.66675 10.0003 1.66675C12.3657 1.66675 14.3462 3.4591 14.5816 5.81274L14.8204 8.20119C14.9386 9.3824 15.3447 10.5166 16.0031 11.5043L16.7208 12.5807C17.2195 13.3288 17.4689 13.7029 17.4651 14.0124C17.4611 14.338 17.2988 14.6413 17.03 14.8252C16.7746 15.0001 16.3251 15.0001 15.426 15.0001H4.57468C3.67556 15.0001 3.22601 15.0001 2.97061 14.8252C2.7019 14.6413 2.53959 14.338 2.53559 14.0124C2.53178 13.7029 2.78115 13.3288 3.27989 12.5807L3.9975 11.5043C4.65599 10.5166 5.06209 9.3824 5.18021 8.20119L5.41906 5.81274Z" fill="#0066FF"/>
<path d="M8.39045 17.1912C8.48541 17.2798 8.69465 17.3581 8.98572 17.4139C9.2768 17.4697 9.63343 17.5 10.0003 17.5C10.3672 17.5 10.7239 17.4697 11.0149 17.4139C11.306 17.3581 11.5152 17.2798 11.6102 17.1912" stroke="#0066FF" stroke-width="2" stroke-linecap="round"/>
</svg>
