<svg width="140" height="33" viewBox="0 0 140 33" fill="none" xmlns="http://www.w3.org/2000/svg">
<g clip-path="url(#clip0_1979_1201)">
<path d="M21.7961 19.4526C21.2327 20.4782 20.432 21.2694 19.4534 21.9141C18.4748 22.5295 17.2886 22.8518 15.8652 22.8518C14.9162 22.8518 14.0266 22.676 13.1963 22.3537C12.3956 22.0313 11.6839 21.5625 11.0908 20.9764C10.4977 20.3903 10.0232 19.687 9.697 18.8958C9.3708 18.1046 9.19287 17.2255 9.19287 16.2584C9.19287 15.35 9.3708 14.5002 9.66735 13.709C9.99355 12.9178 10.4384 12.1852 11.0315 11.5991C11.5949 11.013 12.3066 10.5442 13.0776 10.1925C13.8783 9.84086 14.768 9.66504 15.7169 9.66504C16.7252 9.66504 17.6445 9.84086 18.3858 10.1632C19.1865 10.4856 19.8093 10.9544 20.343 11.5405C20.8768 12.1266 21.2623 12.8299 21.5292 13.5918C21.7961 14.383 21.9444 15.2621 21.9444 16.1705V16.4636C21.9148 16.5515 21.9148 16.6394 21.9148 16.7566C21.9444 16.8152 21.9444 16.9031 21.9444 16.991H12.4845C12.5439 17.4892 12.6921 17.9288 12.9294 18.2804C13.1666 18.6321 13.4038 18.9544 13.73 19.1888C14.0266 19.4233 14.4121 19.6284 14.768 19.7163C15.1535 19.8335 15.539 19.8921 15.9245 19.8921C16.6955 19.8921 17.3479 19.7163 17.8521 19.3647C18.1486 19.1888 18.3858 18.9251 18.5934 18.6907C18.89 18.339 19.3941 18.2511 19.8093 18.4269L21.7961 19.4526ZM18.7417 14.6467C18.712 14.4416 18.6527 14.1779 18.5341 13.9141C18.4155 13.6504 18.2376 13.3867 17.9707 13.1522C17.7334 12.9178 17.4072 12.7127 17.0514 12.5661C16.6955 12.4196 16.2507 12.3317 15.7466 12.3317C15.0349 12.3317 14.4121 12.5368 13.8487 12.9471C13.2852 13.3573 12.9294 13.9141 12.6921 14.6467H18.7417Z" fill="#F91427"/>
<path d="M52.3996 11.0423C52.0438 10.6028 51.5693 10.2511 51.0059 10.0167C50.4424 9.78227 49.79 9.63575 49.019 9.63575C47.9811 9.63575 47.1211 9.84088 46.4094 10.3097C45.6977 10.7493 45.1342 11.3061 44.7191 11.9215C44.4522 11.2768 43.9777 10.7493 43.3253 10.2804C42.6729 9.84088 41.8722 9.60645 40.8936 9.60645C40.0929 9.60645 39.3516 9.78227 38.6398 10.1632C37.9578 10.5442 37.4537 11.013 37.0385 11.6284H36.8309V11.013C36.8309 10.4563 36.3861 10.0167 35.8226 10.0167H33.6875V22.4123H37.0681V16.4343C37.0681 15.9068 37.1274 15.4086 37.2461 14.9691C37.3647 14.5295 37.5426 14.1193 37.7799 13.7969C37.9874 13.4746 38.284 13.2108 38.5805 13.0057C38.8771 12.8299 39.2626 12.7127 39.7074 12.7127C41.1605 12.7127 41.9019 13.5625 41.9019 15.2328V22.4416H45.2528V16.4343C45.2528 15.9068 45.3122 15.4086 45.4308 14.9691C45.5494 14.5295 45.7273 14.1193 45.9646 13.7969C46.2018 13.4746 46.4983 13.2108 46.8245 13.0057C47.1507 12.8299 47.5659 12.7127 48.0107 12.7127C49.4045 12.7127 50.1162 13.5625 50.1162 15.2328V22.4416H53.4672V14.6174C53.4672 13.8848 53.3782 13.2108 53.1707 12.5955C53.052 12.0094 52.7555 11.4526 52.3996 11.0423Z" fill="#2E425C"/>
<path d="M67.0195 11.4819C66.4264 10.8958 65.7147 10.427 64.914 10.1046C64.1133 9.78227 63.2237 9.60645 62.2451 9.60645C61.2665 9.60645 60.3768 9.78227 59.5761 10.1046C58.7755 10.427 58.0638 10.8958 57.4707 11.4819C56.8776 12.068 56.4031 12.7713 56.0769 13.5625C55.7507 14.3537 55.5728 15.2621 55.5728 16.1999C55.5728 17.1669 55.7507 18.046 56.0769 18.8372C56.4031 19.6284 56.8776 20.361 57.4707 20.9178C58.0638 21.5039 58.7755 21.9727 59.5761 22.2951C60.3768 22.6174 61.2665 22.7933 62.2451 22.7933C63.2237 22.7933 64.1133 22.6174 64.914 22.2951C65.7147 21.9727 66.4264 21.5039 67.0195 20.9178C67.6126 20.3317 68.0871 19.6284 68.4133 18.8372C68.7395 18.046 68.9174 17.1376 68.9174 16.1999C68.9174 15.2328 68.7395 14.3537 68.4133 13.5625C68.0574 12.7713 67.6126 12.068 67.0195 11.4819ZM65.2699 17.7237C65.0919 18.1632 64.825 18.5149 64.5285 18.8372C64.2319 19.1303 63.8464 19.394 63.4609 19.5112C63.0458 19.687 62.6602 19.7456 62.2154 19.7456C61.7706 19.7456 61.3554 19.687 60.9699 19.5112C60.5844 19.3354 60.2285 19.101 59.9023 18.8372C59.6058 18.5442 59.3389 18.1632 59.161 17.7237C58.9831 17.2841 58.8941 16.7859 58.8941 16.2292C58.8941 15.6724 58.9831 15.1742 59.161 14.7347C59.3389 14.2951 59.6058 13.9434 59.9023 13.6211C60.1989 13.3281 60.5548 13.0643 60.9699 12.9471C61.3554 12.7713 61.7706 12.7127 62.2154 12.7127C62.6602 12.7127 63.0458 12.7713 63.4609 12.9471C63.8761 13.1229 64.2319 13.3574 64.5285 13.6211C64.825 13.9141 65.0919 14.2951 65.2699 14.7347C65.4478 15.1742 65.5367 15.6724 65.5367 16.2292C65.5664 16.8152 65.4478 17.3134 65.2699 17.7237Z" fill="#2E425C"/>
<path d="M81.5801 11.0716C81.1946 10.6028 80.6905 10.2511 80.127 10.0167C79.5339 9.75296 78.8222 9.63574 78.0512 9.63574C77.1912 9.63574 76.4498 9.81157 75.7678 10.1925C75.0857 10.5442 74.5816 11.0423 74.1961 11.687H73.9885V11.0716C73.9885 10.5149 73.5437 10.0753 72.9802 10.0753H70.8154V22.4709H74.1664V16.3464C74.1664 15.8482 74.2257 15.35 74.3443 14.9398C74.463 14.5002 74.6409 14.1193 74.9078 13.7676C75.145 13.4453 75.4712 13.1815 75.7974 12.9764C76.1533 12.8006 76.5685 12.6834 77.0133 12.6834C77.7843 12.6834 78.3774 12.8885 78.7629 13.328C79.1781 13.7676 79.356 14.4123 79.356 15.3207V22.4416H82.7366V14.9398C82.7366 14.1486 82.6477 13.416 82.4401 12.7713C82.2622 12.1266 81.9656 11.5405 81.5801 11.0716Z" fill="#2E425C"/>
<path d="M94.5983 11.394H94.3907C94.0052 10.8372 93.4714 10.427 92.8486 10.1046C92.1962 9.81157 91.4549 9.63574 90.5652 9.63574C89.8239 9.63574 89.0825 9.78226 88.3708 10.0753C87.6591 10.3683 87.0363 10.8079 86.4729 11.3647C85.9094 11.9215 85.4943 12.5954 85.1384 13.3867C84.8122 14.1779 84.6343 15.057 84.6343 16.024C84.6343 16.9911 84.8122 17.8702 85.1384 18.6614C85.4646 19.4526 85.9391 20.1266 86.4729 20.6834C87.0363 21.2401 87.6591 21.6797 88.3708 21.9727C89.0825 22.2658 89.7942 22.4123 90.5652 22.4123C91.4252 22.4123 92.1962 22.2365 92.8486 21.9434C93.501 21.6504 94.0052 21.2108 94.3907 20.6541H94.5983V21.5039C94.5983 22.676 94.3017 23.6431 93.679 24.3171C93.0562 24.991 92.2259 25.3427 91.1583 25.3427C90.4763 25.3427 89.8832 25.1669 89.3494 24.7859C89.0232 24.5808 88.7563 24.2878 88.5487 23.9947C88.2818 23.5845 87.7777 23.4379 87.3329 23.6138L84.9901 24.5222C85.1384 24.9617 85.4053 25.4013 85.7315 25.8409C86.0577 26.2804 86.5025 26.6907 87.0363 27.0423C87.5404 27.394 88.1335 27.7163 88.8453 27.9215C89.5273 28.1559 90.328 28.2438 91.2176 28.2438C92.1962 28.2438 93.1155 28.068 93.9162 27.7749C94.7169 27.4819 95.4286 27.013 95.992 26.4269C96.5555 25.8409 97.03 25.1376 97.3562 24.2878C97.6824 23.4672 97.8306 22.5002 97.8306 21.4746V10.046H95.6362C95.0727 10.046 94.6279 10.4856 94.6279 11.0423L94.5983 11.394ZM94.3314 17.5185C94.1535 17.9581 93.8866 18.3097 93.59 18.5735C93.2935 18.8665 92.908 19.0716 92.5224 19.2475C92.1073 19.394 91.7218 19.4526 91.3066 19.4526C90.8914 19.4526 90.5059 19.394 90.1204 19.2475C89.7349 19.1009 89.379 18.8665 89.0528 18.5735C88.7563 18.2804 88.4894 17.9288 88.3115 17.5185C88.1335 17.079 88.0149 16.6101 88.0149 16.0826C88.0149 15.5552 88.1039 15.0277 88.3115 14.6174C88.4894 14.1779 88.7563 13.8262 89.0528 13.5332C89.3494 13.2401 89.7052 13.0057 90.1204 12.8592C90.5059 12.7127 90.9211 12.6541 91.3066 12.6541C91.7218 12.6541 92.1073 12.7127 92.5224 12.8592C92.9376 13.0057 93.2935 13.2401 93.59 13.5332C93.8866 13.8262 94.1535 14.1779 94.3314 14.6174C94.5093 15.057 94.6279 15.5259 94.6279 16.0826C94.5983 16.5808 94.539 17.079 94.3314 17.5185Z" fill="#2E425C"/>
<path d="M111.294 11.4819C110.701 10.8958 109.989 10.427 109.188 10.1046C108.388 9.78227 107.498 9.60645 106.519 9.60645C105.541 9.60645 104.651 9.78227 103.851 10.1046C103.05 10.427 102.338 10.8958 101.745 11.4819C101.152 12.068 100.677 12.7713 100.351 13.5625C100.025 14.3537 99.8472 15.2621 99.8472 16.1999C99.8472 17.1669 100.025 18.046 100.351 18.8372C100.677 19.6284 101.152 20.361 101.745 20.9178C102.338 21.5039 103.05 21.9727 103.851 22.2951C104.651 22.6174 105.541 22.7933 106.519 22.7933C107.498 22.7933 108.388 22.6174 109.188 22.2951C109.989 21.9727 110.701 21.5039 111.294 20.9178C111.887 20.3317 112.361 19.6284 112.688 18.8372C113.014 18.046 113.192 17.1376 113.192 16.1999C113.192 15.2328 113.014 14.3537 112.688 13.5625C112.361 12.7713 111.887 12.068 111.294 11.4819ZM109.544 17.7237C109.366 18.1632 109.099 18.5149 108.833 18.8372C108.536 19.1303 108.15 19.394 107.765 19.5112C107.35 19.687 106.964 19.7456 106.519 19.7456C106.075 19.7456 105.659 19.687 105.274 19.5112C104.888 19.3354 104.533 19.101 104.206 18.8372C103.91 18.5442 103.643 18.1632 103.465 17.7237C103.287 17.2841 103.198 16.7859 103.198 16.2292C103.198 15.6724 103.287 15.1742 103.465 14.7347C103.643 14.2951 103.91 13.9434 104.206 13.6211C104.503 13.3281 104.859 13.0643 105.274 12.9471C105.659 12.7713 106.075 12.7127 106.519 12.7127C106.964 12.7127 107.35 12.7713 107.765 12.9471C108.18 13.1229 108.536 13.3574 108.833 13.6211C109.129 13.9141 109.396 14.2951 109.544 14.7347C109.722 15.1742 109.811 15.6724 109.811 16.2292C109.811 16.8152 109.752 17.3134 109.544 17.7237Z" fill="#2E425C"/>
<path d="M118.559 4.30273H115.208V22.4419H118.559V4.30273Z" fill="#2E425C"/>
<path d="M123.304 4.09766C123.008 4.09766 122.741 4.15626 122.474 4.27348C122.207 4.3907 121.97 4.53722 121.792 4.71304C121.614 4.88886 121.436 5.1526 121.347 5.38703C121.228 5.65077 121.169 5.91451 121.169 6.20755C121.169 6.50059 121.228 6.79363 121.347 7.02806C121.465 7.2918 121.614 7.49692 121.792 7.70205C121.97 7.90718 122.237 8.0537 122.474 8.14161C122.741 8.25883 123.037 8.31744 123.304 8.31744C123.897 8.31744 124.401 8.11231 124.846 7.70205C125.291 7.2918 125.499 6.79363 125.499 6.17824C125.499 5.56286 125.291 5.09399 124.846 4.65443C124.431 4.30278 123.897 4.09766 123.304 4.09766Z" fill="#2E425C"/>
<path d="M124.995 10.0459H121.644V22.4415H124.995V10.0459Z" fill="#2E425C"/>
<path d="M137.45 10.9837C136.412 10.0753 134.929 9.63574 133.001 9.63574C130.688 9.63574 128.879 10.4563 127.545 12.1266L129.977 13.7969C130.777 12.8299 131.756 12.361 132.912 12.361C133.713 12.361 134.336 12.5661 134.87 13.0057C135.403 13.4453 135.67 13.9727 135.67 14.6467V14.9984C135.344 14.8519 134.87 14.7346 134.365 14.5881C133.832 14.4709 133.179 14.4123 132.319 14.4123C131.578 14.4123 130.896 14.5002 130.273 14.7053C129.65 14.8812 129.087 15.1742 128.642 15.5552C128.197 15.9361 127.841 16.3464 127.574 16.8738C127.308 17.4013 127.189 17.9581 127.189 18.6028C127.189 19.2182 127.308 19.8042 127.545 20.3317C127.782 20.8592 128.108 21.2987 128.553 21.6797C128.998 22.0607 129.472 22.3537 130.065 22.5588C130.629 22.7639 131.252 22.8519 131.904 22.8519C132.764 22.8519 133.476 22.676 134.039 22.3537C134.603 22.0313 135.077 21.6211 135.463 21.1522H135.67V21.4453C135.67 22.002 136.115 22.4416 136.678 22.4416H138.992V14.9984C138.992 13.2401 138.487 11.8922 137.45 10.9837ZM135.463 18.4856C135.314 18.8372 135.107 19.1302 134.84 19.394C134.573 19.6577 134.276 19.8628 133.891 20.0387C133.505 20.2145 133.09 20.2731 132.675 20.2731C132.112 20.2731 131.637 20.1266 131.252 19.8335C130.837 19.5405 130.629 19.1302 130.629 18.6321C130.629 18.1339 130.837 17.7237 131.281 17.3427C131.726 16.9911 132.349 16.8152 133.15 16.8152C133.654 16.8152 134.099 16.8738 134.514 16.9911C134.929 17.1083 135.314 17.2548 135.73 17.4306C135.67 17.7823 135.611 18.1339 135.463 18.4856Z" fill="#2E425C"/>
<path d="M22.8933 30.9984H8.03624C3.97354 30.9984 0.622559 27.7163 0.622559 23.6724V8.99105C0.622559 4.97639 3.94389 1.66504 8.03624 1.66504H22.8933C26.9856 1.66504 30.3069 4.94709 30.3069 8.99105V23.6724C30.3069 27.7163 26.9856 30.9984 22.8933 30.9984ZM8.03624 3.83354C5.15973 3.83354 2.81701 6.14856 2.81701 8.99105V23.6724C2.81701 26.5149 5.15973 28.8299 8.03624 28.8299H22.8933C25.7698 28.8299 28.1125 26.5149 28.1125 23.6724V8.99105C28.1125 6.14856 25.7698 3.83354 22.8933 3.83354H8.03624Z" fill="#004DD9"/>
<path d="M102.991 27.1598V28.3319H102.338V27.6872H99.8472V24.7275H100.559V27.1598H101.864V24.7275H102.546V27.1598H102.991Z" fill="#2E425C"/>
<path d="M105.689 25.4307V27.7164H105.037V27.4527C104.859 27.6285 104.622 27.7457 104.325 27.7457C104.117 27.7457 103.91 27.6871 103.732 27.5992C103.554 27.5113 103.435 27.3647 103.317 27.1889C103.228 27.0131 103.168 26.808 103.168 26.5735C103.168 26.3391 103.228 26.134 103.317 25.9581C103.406 25.7823 103.554 25.6651 103.732 25.5479C103.91 25.46 104.117 25.4014 104.325 25.4014C104.622 25.4014 104.859 25.4893 105.007 25.6944V25.46L105.689 25.4307ZM104.859 27.0424C104.977 26.9252 105.037 26.7787 105.037 26.6028C105.037 26.427 104.977 26.2512 104.859 26.1633C104.74 26.0461 104.592 25.9874 104.444 25.9874C104.266 25.9874 104.147 26.0461 103.999 26.1633C103.88 26.2805 103.821 26.427 103.821 26.6028C103.821 26.7787 103.88 26.9545 103.999 27.0424C104.117 27.1596 104.266 27.2182 104.444 27.2182C104.622 27.1889 104.77 27.1303 104.859 27.0424Z" fill="#2E425C"/>
<path d="M107.765 27.6871L107.261 27.0131L106.757 27.6871H106.016L106.905 26.5442L106.045 25.4307H106.787L107.291 26.0754L107.765 25.4307H108.507L107.647 26.5442L108.536 27.6871H107.765Z" fill="#2E425C"/>
<path d="M111.086 25.4307V27.7164H110.434V27.4527C110.375 27.5406 110.256 27.6285 110.137 27.6578C110.019 27.7164 109.871 27.7164 109.722 27.7164C109.426 27.7164 109.159 27.6285 109.011 27.4527C108.833 27.2768 108.744 27.0131 108.744 26.6908V25.4014H109.426V26.5735C109.426 26.9252 109.574 27.1303 109.871 27.1303C110.048 27.1303 110.167 27.0717 110.256 26.9545C110.345 26.8666 110.404 26.6908 110.404 26.5149V25.3721L111.086 25.4307Z" fill="#2E425C"/>
<path d="M113.963 27.6871V26.3391L113.251 27.4819H113.014L112.332 26.3391V27.6871H111.709V25.4307H112.421L113.132 26.7493L113.933 25.4307H114.556V27.6871H113.963Z" fill="#2E425C"/>
<path d="M117.729 27.7164V28.5369H117.077V27.7164L116.098 25.4307H116.78L117.433 26.9838L118.085 25.4307H118.737L117.729 27.7164Z" fill="#2E425C"/>
<path d="M119.063 25.4307H119.716V26.3098H120.724V25.4307H121.377V27.6871H120.724V26.8373H119.716V27.6871H119.063V25.4307Z" fill="#2E425C"/>
<path d="M124.372 25.4307V27.3061C124.372 27.7457 124.253 28.0387 124.046 28.2145C123.838 28.4197 123.512 28.5076 123.097 28.5076C122.889 28.5076 122.652 28.4783 122.474 28.449C122.296 28.3904 122.118 28.3025 121.97 28.2145L122.237 27.7457C122.326 27.8043 122.444 27.8922 122.593 27.9215C122.741 27.9508 122.889 27.9801 123.037 27.9801C123.275 27.9801 123.453 27.9215 123.542 27.8043C123.66 27.7164 123.719 27.5406 123.719 27.3354V27.3061C123.542 27.4819 123.304 27.5992 123.008 27.5992C122.8 27.5992 122.593 27.5406 122.444 27.4526C122.266 27.3647 122.148 27.2475 122.029 27.0717C121.94 26.8959 121.881 26.72 121.881 26.5149C121.881 26.3098 121.94 26.1047 122.029 25.9581C122.118 25.7823 122.266 25.6651 122.444 25.5772C122.622 25.4893 122.8 25.4307 123.008 25.4307C123.334 25.4307 123.601 25.5479 123.779 25.753V25.46L124.372 25.4307ZM123.542 26.8959C123.66 26.808 123.719 26.6614 123.719 26.4856C123.719 26.3098 123.66 26.1926 123.542 26.0754C123.423 25.9874 123.275 25.8995 123.097 25.8995C122.919 25.8995 122.8 25.9581 122.652 26.0754C122.533 26.1633 122.474 26.3098 122.474 26.4856C122.474 26.6614 122.533 26.7786 122.652 26.8959C122.771 26.9838 122.919 27.0717 123.097 27.0717C123.275 27.0424 123.423 27.0131 123.542 26.8959Z" fill="#2E425C"/>
<path d="M126.447 25.5477C126.625 25.6356 126.803 25.7822 126.892 25.9873C127.011 26.1631 127.07 26.3682 127.07 26.6027C127.07 26.8371 127.011 27.0422 126.892 27.218C126.774 27.3939 126.625 27.5404 126.447 27.6576C126.269 27.7748 126.032 27.8041 125.765 27.8041C125.558 27.8041 125.321 27.7455 125.172 27.6869C124.994 27.6283 124.846 27.5111 124.727 27.3939L125.113 27.0422C125.291 27.218 125.498 27.306 125.736 27.306C125.914 27.306 126.032 27.2474 126.18 27.1887C126.329 27.1301 126.358 27.0129 126.418 26.8664H125.439V26.4268H126.388C126.329 26.2803 126.269 26.1924 126.151 26.1045C126.032 26.0459 125.884 25.9873 125.706 25.9873C125.469 25.9873 125.261 26.0752 125.083 26.251L124.698 25.8994C124.816 25.7528 124.965 25.6649 125.143 25.6063C125.321 25.5477 125.528 25.4891 125.736 25.4891C126.032 25.3719 126.24 25.4598 126.447 25.5477Z" fill="#2E425C"/>
<path d="M127.93 27.5699C127.752 27.482 127.575 27.3355 127.486 27.1303C127.367 26.9545 127.308 26.7494 127.308 26.5149C127.308 26.2805 127.367 26.0754 127.486 25.8996C127.604 25.7237 127.752 25.6065 127.93 25.46C128.108 25.3721 128.346 25.3135 128.612 25.3135C128.85 25.3135 129.057 25.3721 129.265 25.46C129.443 25.5479 129.561 25.6944 129.68 25.8996L129.146 26.1926C129.028 25.9875 128.85 25.8996 128.612 25.8996C128.435 25.8996 128.316 25.9582 128.168 26.0754C128.049 26.1926 127.99 26.3391 127.99 26.5149C127.99 26.6908 128.049 26.8666 128.168 26.9545C128.286 27.0717 128.435 27.1303 128.612 27.1303C128.85 27.1303 129.028 27.0424 129.146 26.8373L129.68 27.1303C129.621 27.3062 129.472 27.4527 129.265 27.5699C129.087 27.6578 128.879 27.7164 128.612 27.7164C128.346 27.7457 128.138 27.6871 127.93 27.5699Z" fill="#2E425C"/>
<path d="M133.654 25.6358C133.832 25.8116 133.921 26.0754 133.921 26.3977V27.6871H133.239V26.4856C133.239 26.3098 133.179 26.1926 133.12 26.0754C133.061 25.9875 132.942 25.9289 132.823 25.9289C132.645 25.9289 132.527 25.9875 132.438 26.0754C132.349 26.1633 132.29 26.3391 132.29 26.5149V27.6578H131.608V26.4563C131.608 26.1047 131.459 25.8995 131.163 25.8995C131.014 25.8995 130.866 25.9582 130.807 26.0461C130.718 26.134 130.659 26.3098 130.659 26.4856V27.6285H129.977V25.3428H130.629V25.6065C130.718 25.5186 130.807 25.4307 130.926 25.4014C131.044 25.3428 131.192 25.3428 131.341 25.3428C131.519 25.3428 131.637 25.3721 131.786 25.4307C131.934 25.4893 132.023 25.6065 132.082 25.7237C132.171 25.6065 132.29 25.5186 132.438 25.4307C132.586 25.3721 132.734 25.3428 132.912 25.3428C133.298 25.4014 133.505 25.46 133.654 25.6358Z" fill="#2E425C"/>
<path d="M135.967 25.5477C136.144 25.6356 136.322 25.7822 136.411 25.9873C136.53 26.1631 136.589 26.3682 136.589 26.6027C136.589 26.8371 136.53 27.0422 136.411 27.218C136.293 27.3939 136.144 27.5404 135.967 27.6576C135.789 27.7455 135.551 27.8041 135.285 27.8041C135.077 27.8041 134.84 27.7455 134.691 27.6869C134.513 27.6283 134.365 27.5111 134.247 27.3939L134.632 27.0422C134.81 27.218 135.018 27.306 135.255 27.306C135.433 27.306 135.551 27.2474 135.7 27.1887C135.818 27.1301 135.878 27.0129 135.937 26.8664H134.988V26.4268H135.937C135.878 26.2803 135.818 26.1924 135.7 26.1045C135.581 26.0459 135.433 25.9873 135.255 25.9873C135.018 25.9873 134.81 26.0752 134.632 26.251L134.247 25.8994C134.365 25.7528 134.513 25.6649 134.691 25.6063C134.869 25.5477 135.077 25.4891 135.285 25.4891C135.522 25.3719 135.759 25.4598 135.967 25.5477Z" fill="#2E425C"/>
<path d="M137.034 25.4307H137.687V26.3098H138.695V25.4307H139.377V27.6871H138.695V26.8373H137.687V27.6871H137.034V25.4307Z" fill="#2E425C"/>
</g>
<defs>
<clipPath id="clip0_1979_1201">
<rect width="140" height="32" fill="white" transform="translate(0 0.34668)"/>
</clipPath>
</defs>
</svg>
