<svg width="220" height="41" viewBox="0 0 220 41" fill="none" xmlns="http://www.w3.org/2000/svg">
<g clip-path="url(#clip0_748_3293)">
<path d="M28.6167 39.2682H10.0454C4.96705 39.2682 0.77832 35.1657 0.77832 30.1107V11.7591C0.77832 6.74076 4.92998 2.60156 10.0454 2.60156H28.6167C33.7321 2.60156 37.8838 6.70413 37.8838 11.7591V30.1107C37.8838 35.1657 33.7321 39.2682 28.6167 39.2682Z" fill="white"/>
<path d="M27.245 24.836C26.5407 26.118 25.5399 27.1071 24.3166 27.9129C23.0934 28.6821 21.6106 29.0851 19.8314 29.0851C18.6452 29.0851 17.5331 28.8653 16.4952 28.4624C15.4944 28.0594 14.6047 27.4734 13.8633 26.7408C13.122 26.0082 12.5289 25.129 12.1211 24.14C11.7134 23.151 11.491 22.0521 11.491 20.8433C11.491 19.7078 11.7134 18.6455 12.0841 17.6565C12.4918 16.6675 13.0478 15.7517 13.7892 15.0191C14.4935 14.2865 15.3831 13.7005 16.3469 13.2609C17.3478 12.8213 18.4598 12.6016 19.646 12.6016C20.9063 12.6016 22.0555 12.8213 22.9822 13.2243C23.983 13.6272 24.7615 14.2133 25.4287 14.9459C26.0959 15.6785 26.5778 16.5576 26.9114 17.51C27.245 18.499 27.4304 19.5979 27.4304 20.7334V21.0997C27.3933 21.2096 27.3933 21.3195 27.3933 21.466C27.4304 21.5393 27.4304 21.6492 27.4304 21.7591H15.6056C15.6797 22.3818 15.865 22.9312 16.1616 23.3708C16.4581 23.8104 16.7547 24.2133 17.1624 24.5063C17.5331 24.7994 18.015 25.0558 18.4598 25.1657C18.9417 25.3122 19.4236 25.3854 19.9055 25.3854C20.8693 25.3854 21.6848 25.1657 22.3149 24.7261C22.6856 24.5063 22.9822 24.1767 23.2417 23.8836C23.6123 23.4441 24.2425 23.3342 24.7615 23.5539L27.245 24.836ZM23.427 18.8287C23.3899 18.5723 23.3158 18.2426 23.1675 17.9129C23.0192 17.5832 22.7968 17.2536 22.4632 16.9605C22.1667 16.6675 21.7589 16.4111 21.3141 16.2279C20.8693 16.0448 20.3132 15.9349 19.6831 15.9349C18.7934 15.9349 18.015 16.1913 17.3107 16.7041C16.6064 17.2169 16.1616 17.9129 15.865 18.8287H23.427Z" fill="#F91427"/>
<path d="M65.4998 14.3232C65.055 13.7737 64.4619 13.3342 63.7576 13.0411C63.0533 12.7481 62.2378 12.565 61.274 12.565C59.9766 12.565 58.9016 12.8214 58.012 13.4074C57.1223 13.9569 56.418 14.6529 55.8991 15.4221C55.5655 14.6162 54.9724 13.9569 54.1569 13.3708C53.3414 12.8214 52.3405 12.5283 51.1172 12.5283C50.1164 12.5283 49.1897 12.7481 48.3 13.2243C47.4475 13.7005 46.8173 14.2866 46.2984 15.0558H46.0389V14.2866C46.0389 13.5906 45.4828 13.0411 44.7785 13.0411H42.1096V28.5357H46.3354V21.0631C46.3354 20.4038 46.4096 19.7811 46.5578 19.2316C46.7061 18.6822 46.9285 18.1693 47.2251 17.7664C47.4845 17.3635 47.8552 17.0338 48.2259 16.7774C48.5966 16.5576 49.0785 16.4111 49.6345 16.4111C51.4509 16.4111 52.3776 17.4734 52.3776 19.5613V28.5723H56.5663V21.0631C56.5663 20.4038 56.6404 19.7811 56.7887 19.2316C56.937 18.6822 57.1594 18.1693 57.4559 17.7664C57.7525 17.3635 58.1232 17.0338 58.5309 16.7774C58.9387 16.5576 59.4576 16.4111 60.0137 16.4111C61.7559 16.4111 62.6455 17.4734 62.6455 19.5613V28.5723H66.8343V18.7921C66.8343 17.8763 66.7231 17.0338 66.4636 16.2646C66.3153 15.532 65.9446 14.836 65.4998 14.3232Z" fill="white"/>
<path d="M83.7745 14.8726C83.0331 14.14 82.1435 13.554 81.1426 13.151C80.1418 12.7481 79.0297 12.5283 77.8065 12.5283C76.5832 12.5283 75.4711 12.7481 74.4703 13.151C73.4695 13.554 72.5798 14.14 71.8384 14.8726C71.0971 15.6052 70.504 16.4844 70.0962 17.4734C69.6885 18.4624 69.4661 19.5979 69.4661 20.7701C69.4661 21.9789 69.6885 23.0778 70.0962 24.0668C70.504 25.0558 71.0971 25.9715 71.8384 26.6675C72.5798 27.4001 73.4695 27.9862 74.4703 28.3891C75.4711 28.7921 76.5832 29.0118 77.8065 29.0118C79.0297 29.0118 80.1418 28.7921 81.1426 28.3891C82.1435 27.9862 83.0331 27.4001 83.7745 26.6675C84.5158 25.9349 85.1089 25.0558 85.5167 24.0668C85.9244 23.0778 86.1469 21.9422 86.1469 20.7701C86.1469 19.5613 85.9244 18.4624 85.5167 17.4734C85.0719 16.4844 84.5158 15.6052 83.7745 14.8726ZM81.5874 22.6748C81.365 23.2243 81.0314 23.6639 80.6607 24.0668C80.29 24.4331 79.8082 24.7628 79.3263 24.9093C78.8073 25.1291 78.3254 25.2023 77.7694 25.2023C77.2134 25.2023 76.6944 25.1291 76.2125 24.9093C75.7306 24.6895 75.2858 24.3965 74.8781 24.0668C74.5074 23.7005 74.1738 23.2243 73.9513 22.6748C73.7289 22.1254 73.6177 21.5027 73.6177 20.8067C73.6177 20.1107 73.7289 19.488 73.9513 18.9386C74.1738 18.3891 74.5074 17.9496 74.8781 17.5466C75.2487 17.1803 75.6936 16.8507 76.2125 16.7041C76.6944 16.4844 77.2134 16.4111 77.7694 16.4111C78.3254 16.4111 78.8073 16.4844 79.3263 16.7041C79.8452 16.9239 80.29 17.217 80.6607 17.5466C81.0314 17.9129 81.365 18.3891 81.5874 18.9386C81.8099 19.488 81.9211 20.1107 81.9211 20.8067C81.9581 21.5393 81.8099 22.162 81.5874 22.6748Z" fill="white"/>
<path d="M101.975 14.3598C101.493 13.7737 100.863 13.3342 100.159 13.0411C99.4174 12.7115 98.5278 12.5649 97.564 12.5649C96.489 12.5649 95.5623 12.7847 94.7097 13.2609C93.8571 13.7005 93.227 14.3232 92.7451 15.129H92.4856V14.3598C92.4856 13.6638 91.9296 13.1144 91.2253 13.1144H88.5193V28.6089H92.708V20.9532C92.708 20.3305 92.7822 19.7078 92.9304 19.195C93.0787 18.6455 93.3011 18.1693 93.6347 17.7298C93.9313 17.3268 94.339 16.9972 94.7468 16.7408C95.1916 16.521 95.7106 16.3745 96.2666 16.3745C97.2304 16.3745 97.9717 16.6309 98.4536 17.1803C98.9726 17.7298 99.195 18.5356 99.195 19.6712V28.5723H103.421V19.195C103.421 18.206 103.31 17.2902 103.05 16.4844C102.828 15.6785 102.457 14.9459 101.975 14.3598Z" fill="white"/>
<path d="M118.248 14.7627H117.989C117.507 14.0668 116.84 13.554 116.061 13.151C115.246 12.7847 114.319 12.5649 113.207 12.5649C112.28 12.5649 111.353 12.7481 110.464 13.1144C109.574 13.4807 108.796 14.0301 108.091 14.7261C107.387 15.4221 106.868 16.2646 106.423 17.2536C106.016 18.2426 105.793 19.3415 105.793 20.5503C105.793 21.7591 106.016 22.858 106.423 23.847C106.831 24.836 107.424 25.6785 108.091 26.3745C108.796 27.0704 109.574 27.6199 110.464 27.9862C111.353 28.3525 112.243 28.5356 113.207 28.5356C114.282 28.5356 115.246 28.3159 116.061 27.9496C116.877 27.5833 117.507 27.0338 117.989 26.3378H118.248V27.4001C118.248 28.8653 117.878 30.0741 117.099 30.9166C116.321 31.7591 115.283 32.1986 113.948 32.1986C113.096 32.1986 112.354 31.9789 111.687 31.5027C111.279 31.2463 110.946 30.88 110.686 30.5137C110.353 30.0008 109.722 29.8177 109.166 30.0375L106.238 31.173C106.423 31.7224 106.757 32.2719 107.165 32.8213C107.573 33.3708 108.129 33.8836 108.796 34.3232C109.426 34.7627 110.167 35.1657 111.057 35.4221C111.91 35.7151 112.91 35.825 114.022 35.825C115.246 35.825 116.395 35.6052 117.396 35.2389C118.396 34.8726 119.286 34.2865 119.99 33.5539C120.695 32.8213 121.288 31.9422 121.696 30.88C122.103 29.8543 122.289 28.6455 122.289 27.3635V13.0778H119.546C118.841 13.0778 118.285 13.6272 118.285 14.3232L118.248 14.7627ZM117.915 22.4184C117.692 22.9679 117.359 23.4074 116.988 23.7371C116.617 24.1034 116.135 24.3598 115.653 24.5796C115.134 24.7627 114.653 24.836 114.134 24.836C113.615 24.836 113.133 24.7627 112.651 24.5796C112.169 24.3964 111.724 24.1034 111.316 23.7371C110.946 23.3708 110.612 22.9312 110.39 22.4184C110.167 21.869 110.019 21.2829 110.019 20.6235C110.019 19.9642 110.13 19.3049 110.39 18.792C110.612 18.2426 110.946 17.803 111.316 17.4367C111.687 17.0704 112.132 16.7774 112.651 16.5942C113.133 16.4111 113.652 16.3378 114.134 16.3378C114.653 16.3378 115.134 16.4111 115.653 16.5942C116.172 16.7774 116.617 17.0704 116.988 17.4367C117.359 17.803 117.692 18.2426 117.915 18.792C118.137 19.3415 118.285 19.9276 118.285 20.6235C118.248 21.2463 118.174 21.869 117.915 22.4184Z" fill="white"/>
<path d="M139.118 14.8726C138.376 14.14 137.487 13.554 136.486 13.151C135.485 12.7481 134.373 12.5283 133.15 12.5283C131.926 12.5283 130.814 12.7481 129.814 13.151C128.813 13.554 127.923 14.14 127.182 14.8726C126.44 15.6052 125.847 16.4844 125.439 17.4734C125.032 18.4624 124.809 19.5979 124.809 20.7701C124.809 21.9789 125.032 23.0778 125.439 24.0668C125.847 25.0558 126.44 25.9715 127.182 26.6675C127.923 27.4001 128.813 27.9862 129.814 28.3891C130.814 28.7921 131.926 29.0118 133.15 29.0118C134.373 29.0118 135.485 28.7921 136.486 28.3891C137.487 27.9862 138.376 27.4001 139.118 26.6675C139.859 25.9349 140.452 25.0558 140.86 24.0668C141.268 23.0778 141.49 21.9422 141.49 20.7701C141.49 19.5613 141.268 18.4624 140.86 17.4734C140.452 16.4844 139.859 15.6052 139.118 14.8726ZM136.931 22.6748C136.708 23.2243 136.375 23.6639 136.041 24.0668C135.67 24.4331 135.188 24.7628 134.707 24.9093C134.188 25.1291 133.706 25.2023 133.15 25.2023C132.594 25.2023 132.075 25.1291 131.593 24.9093C131.111 24.6895 130.666 24.3965 130.258 24.0668C129.888 23.7005 129.554 23.2243 129.332 22.6748C129.109 22.1254 128.998 21.5027 128.998 20.8067C128.998 20.1107 129.109 19.488 129.332 18.9386C129.554 18.3891 129.888 17.9496 130.258 17.5466C130.629 17.1803 131.074 16.8507 131.593 16.7041C132.075 16.4844 132.594 16.4111 133.15 16.4111C133.706 16.4111 134.188 16.4844 134.707 16.7041C135.226 16.9239 135.67 17.217 136.041 17.5466C136.412 17.9129 136.745 18.3891 136.931 18.9386C137.153 19.488 137.264 20.1107 137.264 20.8067C137.264 21.5393 137.19 22.162 136.931 22.6748Z" fill="white"/>
<path d="M148.199 5.89844H144.011V28.5724H148.199V5.89844Z" fill="white"/>
<path d="M154.13 5.64209C153.76 5.64209 153.426 5.71535 153.092 5.86187C152.759 6.00839 152.462 6.19154 152.24 6.41132C152.017 6.6311 151.795 6.96077 151.684 7.25381C151.536 7.58348 151.461 7.91315 151.461 8.27945C151.461 8.64575 151.536 9.01205 151.684 9.30509C151.832 9.63476 152.017 9.89117 152.24 10.1476C152.462 10.404 152.796 10.5871 153.092 10.697C153.426 10.8436 153.797 10.9168 154.13 10.9168C154.872 10.9168 155.502 10.6604 156.058 10.1476C156.614 9.63476 156.873 9.01205 156.873 8.24282C156.873 7.47359 156.614 6.88751 156.058 6.33806C155.539 5.8985 154.872 5.64209 154.13 5.64209Z" fill="white"/>
<path d="M156.243 13.0776H152.054V28.5721H156.243V13.0776Z" fill="white"/>
<path d="M171.812 14.2499C170.515 13.1144 168.661 12.5649 166.252 12.5649C163.36 12.5649 161.099 13.5906 159.431 15.6785L162.471 17.7664C163.472 16.5576 164.695 15.9715 166.141 15.9715C167.141 15.9715 167.92 16.2279 168.587 16.7774C169.254 17.3268 169.588 17.9862 169.588 18.8287V19.2682C169.18 19.0851 168.587 18.9386 167.957 18.7554C167.29 18.6089 166.474 18.5356 165.399 18.5356C164.472 18.5356 163.62 18.6455 162.841 18.9019C162.063 19.1217 161.359 19.488 160.803 19.9642C160.247 20.4404 159.802 20.9532 159.468 21.6126C159.135 22.2719 158.986 22.9679 158.986 23.7737C158.986 24.543 159.135 25.2756 159.431 25.9349C159.728 26.5942 160.135 27.1437 160.691 27.6199C161.248 28.0961 161.841 28.4624 162.582 28.7188C163.286 28.9752 164.065 29.0851 164.88 29.0851C165.955 29.0851 166.845 28.8653 167.549 28.4624C168.253 28.0594 168.847 27.5466 169.328 26.9605H169.588V27.3268C169.588 28.0228 170.144 28.5723 170.848 28.5723H173.74V19.2682C173.74 17.0704 173.109 15.3855 171.812 14.2499ZM169.328 23.6272C169.143 24.0668 168.884 24.4331 168.55 24.7627C168.216 25.0924 167.846 25.3488 167.364 25.5686C166.882 25.7884 166.363 25.8616 165.844 25.8616C165.14 25.8616 164.547 25.6785 164.065 25.3122C163.546 24.9459 163.286 24.4331 163.286 23.8104C163.286 23.1877 163.546 22.6748 164.102 22.1986C164.658 21.7591 165.436 21.5393 166.437 21.5393C167.067 21.5393 167.623 21.6126 168.142 21.7591C168.661 21.9056 169.143 22.0888 169.662 22.3085C169.588 22.7481 169.514 23.1877 169.328 23.6272Z" fill="white"/>
<path d="M28.6167 39.2682H10.0454C4.96705 39.2682 0.77832 35.1657 0.77832 30.1107V11.7591C0.77832 6.74076 4.92998 2.60156 10.0454 2.60156H28.6167C33.7321 2.60156 37.8838 6.70413 37.8838 11.7591V30.1107C37.8838 35.1657 33.7321 39.2682 28.6167 39.2682ZM10.0454 5.31219C6.44979 5.31219 3.52138 8.20596 3.52138 11.7591V30.1107C3.52138 33.6638 6.44979 36.5576 10.0454 36.5576H28.6167C32.2123 36.5576 35.1407 33.6638 35.1407 30.1107V11.7591C35.1407 8.20596 32.2123 5.31219 28.6167 5.31219H10.0454Z" fill="#004DD9"/>
<path d="M128.739 34.4695V35.9347H127.923V35.1288H124.809V31.4292H125.699V34.4695H127.33V31.4292H128.183V34.4695H128.739Z" fill="white"/>
<path d="M132.112 32.3086V35.1657H131.296V34.8361C131.074 35.0559 130.777 35.2024 130.407 35.2024C130.147 35.2024 129.888 35.1291 129.665 35.0192C129.443 34.9093 129.295 34.7262 129.146 34.5064C129.035 34.2866 128.961 34.0302 128.961 33.7372C128.961 33.4441 129.035 33.1877 129.146 32.9679C129.257 32.7482 129.443 32.6016 129.665 32.4551C129.888 32.3452 130.147 32.272 130.407 32.272C130.777 32.272 131.074 32.3819 131.259 32.6383V32.3452L132.112 32.3086ZM131.074 34.3233C131.222 34.1767 131.296 33.9936 131.296 33.7738C131.296 33.554 131.222 33.3342 131.074 33.2244C130.926 33.0778 130.74 33.0046 130.555 33.0046C130.332 33.0046 130.184 33.0778 129.999 33.2244C129.851 33.3709 129.776 33.554 129.776 33.7738C129.776 33.9936 129.851 34.2134 129.999 34.3233C130.147 34.4698 130.332 34.543 130.555 34.543C130.777 34.5064 130.963 34.4331 131.074 34.3233Z" fill="white"/>
<path d="M134.707 35.1291L134.076 34.2866L133.446 35.1291H132.52L133.632 33.7005L132.557 32.3086H133.483L134.113 33.1145L134.707 32.3086H135.633L134.558 33.7005L135.67 35.1291H134.707Z" fill="white"/>
<path d="M138.858 32.3086V35.1658H138.043V34.8361C137.968 34.946 137.82 35.0559 137.672 35.0925C137.524 35.1658 137.338 35.1658 137.153 35.1658C136.782 35.1658 136.449 35.0559 136.263 34.8361C136.041 34.6163 135.93 34.2866 135.93 33.8837V32.272H136.782V33.7372C136.782 34.1767 136.968 34.4332 137.338 34.4332C137.561 34.4332 137.709 34.3599 137.82 34.2134C137.931 34.1035 138.006 33.8837 138.006 33.6639V32.2354L138.858 32.3086Z" fill="white"/>
<path d="M142.454 35.1291V33.4441L141.564 34.8727H141.268L140.415 33.4441V35.1291H139.637V32.3086H140.526L141.416 33.9569L142.417 32.3086H143.195V35.1291H142.454Z" fill="white"/>
<path d="M147.162 35.1657V36.1914H146.346V35.1657L145.123 32.3086H145.975L146.791 34.25L147.606 32.3086H148.422L147.162 35.1657Z" fill="white"/>
<path d="M148.83 32.3086H149.645V33.4075H150.905V32.3086H151.721V35.1291H150.905V34.0668H149.645V35.1291H148.83V32.3086Z" fill="white"/>
<path d="M155.465 32.3086V34.6529C155.465 35.2024 155.317 35.5687 155.057 35.7884C154.798 36.0449 154.39 36.1547 153.871 36.1547C153.611 36.1547 153.315 36.1181 153.092 36.0815C152.87 36.0082 152.648 35.8983 152.462 35.7884L152.796 35.2024C152.907 35.2756 153.055 35.3855 153.241 35.4221C153.426 35.4588 153.611 35.4954 153.797 35.4954C154.093 35.4954 154.316 35.4221 154.427 35.2756C154.575 35.1657 154.649 34.946 154.649 34.6895V34.6529C154.427 34.8727 154.13 35.0192 153.76 35.0192C153.5 35.0192 153.241 34.946 153.055 34.8361C152.833 34.7262 152.685 34.5797 152.536 34.3599C152.425 34.1401 152.351 33.9203 152.351 33.6639C152.351 33.4075 152.425 33.1511 152.536 32.9679C152.648 32.7482 152.833 32.6016 153.055 32.4917C153.278 32.3819 153.5 32.3086 153.76 32.3086C154.167 32.3086 154.501 32.4551 154.723 32.7115V32.3452L155.465 32.3086ZM154.427 34.1401C154.575 34.0302 154.649 33.8471 154.649 33.6273C154.649 33.4075 154.575 33.261 154.427 33.1145C154.279 33.0046 154.093 32.8947 153.871 32.8947C153.648 32.8947 153.5 32.9679 153.315 33.1145C153.167 33.2243 153.092 33.4075 153.092 33.6273C153.092 33.8471 153.167 33.9936 153.315 34.1401C153.463 34.25 153.648 34.3599 153.871 34.3599C154.093 34.3232 154.279 34.2866 154.427 34.1401Z" fill="white"/>
<path d="M158.06 32.4549C158.282 32.5648 158.504 32.748 158.616 33.0044C158.764 33.2241 158.838 33.4806 158.838 33.7736C158.838 34.0666 158.764 34.323 158.616 34.5428C158.467 34.7626 158.282 34.9458 158.06 35.0923C157.837 35.2388 157.541 35.2754 157.207 35.2754C156.948 35.2754 156.651 35.2022 156.466 35.1289C156.243 35.0556 156.058 34.9091 155.91 34.7626L156.392 34.323C156.614 34.5428 156.873 34.6527 157.17 34.6527C157.392 34.6527 157.541 34.5795 157.726 34.5062C157.911 34.4329 157.948 34.2864 158.023 34.1033H156.799V33.5538H157.985C157.911 33.3707 157.837 33.2608 157.689 33.1509C157.541 33.0776 157.355 33.0044 157.133 33.0044C156.836 33.0044 156.577 33.1143 156.354 33.334L155.873 32.8945C156.021 32.7113 156.206 32.6014 156.429 32.5282C156.651 32.4549 156.91 32.3817 157.17 32.3817C157.541 32.2351 157.8 32.345 158.06 32.4549Z" fill="white"/>
<path d="M159.913 34.9826C159.691 34.8727 159.468 34.6896 159.357 34.4332C159.209 34.2134 159.135 33.957 159.135 33.6639C159.135 33.3709 159.209 33.1145 159.357 32.8947C159.505 32.6749 159.691 32.5284 159.913 32.3453C160.135 32.2354 160.432 32.1621 160.766 32.1621C161.062 32.1621 161.322 32.2354 161.581 32.3453C161.803 32.4551 161.952 32.6383 162.1 32.8947L161.433 33.261C161.284 33.0046 161.062 32.8947 160.766 32.8947C160.543 32.8947 160.395 32.968 160.21 33.1145C160.061 33.261 159.987 33.4442 159.987 33.6639C159.987 33.8837 160.061 34.1035 160.21 34.2134C160.358 34.3599 160.543 34.4332 160.766 34.4332C161.062 34.4332 161.284 34.3233 161.433 34.0669L162.1 34.4332C162.026 34.653 161.841 34.8361 161.581 34.9826C161.359 35.0925 161.099 35.1658 160.766 35.1658C160.432 35.2024 160.172 35.1291 159.913 34.9826Z" fill="white"/>
<path d="M167.067 32.565C167.29 32.7848 167.401 33.1145 167.401 33.5174V35.1291H166.548V33.6273C166.548 33.4075 166.474 33.261 166.4 33.1145C166.326 33.0046 166.178 32.9313 166.029 32.9313C165.807 32.9313 165.659 33.0046 165.547 33.1145C165.436 33.2244 165.362 33.4442 165.362 33.6639V35.0925H164.509V33.5907C164.509 33.1511 164.324 32.8947 163.953 32.8947C163.768 32.8947 163.583 32.968 163.509 33.0778C163.397 33.1877 163.323 33.4075 163.323 33.6273V35.0559H162.471V32.1987H163.286V32.5284C163.397 32.4185 163.509 32.3086 163.657 32.272C163.805 32.1987 163.991 32.1987 164.176 32.1987C164.398 32.1987 164.547 32.2354 164.732 32.3086C164.917 32.3819 165.028 32.5284 165.103 32.6749C165.214 32.5284 165.362 32.4185 165.547 32.3086C165.733 32.2354 165.918 32.1987 166.14 32.1987C166.622 32.272 166.882 32.3453 167.067 32.565Z" fill="white"/>
<path d="M169.959 32.4549C170.181 32.5648 170.403 32.748 170.515 33.0044C170.663 33.2241 170.737 33.4806 170.737 33.7736C170.737 34.0666 170.663 34.323 170.515 34.5428C170.366 34.7626 170.181 34.9458 169.959 35.0923C169.736 35.2022 169.44 35.2754 169.106 35.2754C168.847 35.2754 168.55 35.2022 168.365 35.1289C168.142 35.0556 167.957 34.9091 167.809 34.7626L168.29 34.323C168.513 34.5428 168.772 34.6527 169.069 34.6527C169.291 34.6527 169.44 34.5795 169.625 34.5062C169.773 34.4329 169.847 34.2864 169.921 34.1033H168.735V33.5538H169.921C169.847 33.3707 169.773 33.2608 169.625 33.1509C169.477 33.0776 169.291 33.0044 169.069 33.0044C168.772 33.0044 168.513 33.1143 168.29 33.334L167.809 32.8945C167.957 32.7113 168.142 32.6014 168.365 32.5282C168.587 32.4549 168.847 32.3817 169.106 32.3817C169.403 32.2351 169.699 32.345 169.959 32.4549Z" fill="white"/>
<path d="M171.293 32.3086H172.108V33.4075H173.369V32.3086H174.221V35.1291H173.369V34.0668H172.108V35.1291H171.293V32.3086Z" fill="white"/>
</g>
<rect x="182.802" y="10.7661" width="36.4826" height="18.2825" rx="9.14127" fill="url(#paint0_linear_748_3293)"/>
<path d="M194.447 25.9072V24.0032H189.343V22.2032L193.031 14.3872H195.231L191.543 22.2032H194.447V19.2032H196.399V22.2032H197.479V24.0032H196.399V25.9072H194.447ZM199.405 25.9072V23.9312H201.381V25.9072H199.405ZM208.089 26.1472C207.273 26.1472 206.553 25.9739 205.929 25.6272C205.305 25.2752 204.817 24.7872 204.465 24.1632C204.118 23.5392 203.945 22.8192 203.945 22.0032V18.2912C203.945 17.4752 204.118 16.7552 204.465 16.1312C204.817 15.5072 205.305 15.0219 205.929 14.6752C206.553 14.3232 207.273 14.1472 208.089 14.1472C208.905 14.1472 209.622 14.3232 210.241 14.6752C210.865 15.0219 211.353 15.5072 211.705 16.1312C212.057 16.7552 212.233 17.4752 212.233 18.2912V22.0032C212.233 22.8192 212.057 23.5392 211.705 24.1632C211.353 24.7872 210.865 25.2752 210.241 25.6272C209.622 25.9739 208.905 26.1472 208.089 26.1472ZM208.089 24.3152C208.494 24.3152 208.862 24.2192 209.193 24.0272C209.523 23.8299 209.785 23.5686 209.977 23.2432C210.169 22.9126 210.265 22.5446 210.265 22.1392V18.1472C210.265 17.7366 210.169 17.3686 209.977 17.0432C209.785 16.7126 209.523 16.4512 209.193 16.2592C208.862 16.0619 208.494 15.9632 208.089 15.9632C207.683 15.9632 207.315 16.0619 206.985 16.2592C206.654 16.4512 206.393 16.7126 206.201 17.0432C206.009 17.3686 205.913 17.7366 205.913 18.1472V22.1392C205.913 22.5446 206.009 22.9126 206.201 23.2432C206.393 23.5686 206.654 23.8299 206.985 24.0272C207.315 24.2192 207.683 24.3152 208.089 24.3152Z" fill="white"/>
<defs>
<linearGradient id="paint0_linear_748_3293" x1="175.264" y1="39.3185" x2="179.944" y2="13.5327" gradientUnits="userSpaceOnUse">
<stop stop-color="#0E2B5D"/>
<stop offset="0.2654" stop-color="#0066FF"/>
<stop offset="0.637919" stop-color="#0066FF"/>
<stop offset="1" stop-color="#1E9AFF"/>
</linearGradient>
<clipPath id="clip0_748_3293">
<rect width="175" height="40" fill="white" transform="translate(0 0.953125)"/>
</clipPath>
</defs>
</svg>
