<svg width="25" height="25" viewBox="0 0 25 25" fill="none" xmlns="http://www.w3.org/2000/svg">
<g id="vuesax/linear/call">
<g id="call">
<g id="call_2">
<path id="Vector" d="M22.0432 18.6767C22.0432 19.0367 21.9632 19.4067 21.7932 19.7667C21.6232 20.1267 21.4032 20.4667 21.1132 20.7867C20.6232 21.3267 20.0832 21.7167 19.4732 21.9667C18.8732 22.2167 18.2232 22.3467 17.5232 22.3467C16.5032 22.3467 15.4132 22.1067 14.2632 21.6167C13.1132 21.1267 11.9632 20.4667 10.8232 19.6367C9.67324 18.7967 8.58324 17.8667 7.54324 16.8367C6.51324 15.7967 5.58324 14.7067 4.75324 13.5667C3.93324 12.4267 3.27324 11.2867 2.79324 10.1567C2.31324 9.01668 2.07324 7.92668 2.07324 6.88668C2.07324 6.20668 2.19324 5.55668 2.43324 4.95668C2.67324 4.34668 3.05324 3.78668 3.58324 3.28668C4.22324 2.65668 4.92324 2.34668 5.66324 2.34668C5.94324 2.34668 6.22324 2.40668 6.47324 2.52668C6.73324 2.64668 6.96324 2.82668 7.14324 3.08668L9.46324 6.35668C9.64324 6.60668 9.77324 6.83668 9.86324 7.05668C9.95324 7.26668 10.0032 7.47668 10.0032 7.66668C10.0032 7.90668 9.93324 8.14668 9.79324 8.37668C9.66324 8.60668 9.47324 8.84668 9.23324 9.08668L8.47324 9.87668C8.36324 9.98668 8.31324 10.1167 8.31324 10.2767C8.31324 10.3567 8.32324 10.4267 8.34324 10.5067C8.37324 10.5867 8.40324 10.6467 8.42324 10.7067C8.60324 11.0367 8.91324 11.4667 9.35324 11.9867C9.80324 12.5067 10.2832 13.0367 10.8032 13.5667C11.3432 14.0967 11.8632 14.5867 12.3932 15.0367C12.9132 15.4767 13.3432 15.7767 13.6832 15.9567C13.7332 15.9767 13.7932 16.0067 13.8632 16.0367C13.9432 16.0667 14.0232 16.0767 14.1132 16.0767C14.2832 16.0767 14.4132 16.0167 14.5232 15.9067L15.2832 15.1567C15.5332 14.9067 15.7732 14.7167 16.0032 14.5967C16.2332 14.4567 16.4632 14.3867 16.7132 14.3867C16.9032 14.3867 17.1032 14.4267 17.3232 14.5167C17.5432 14.6067 17.7732 14.7367 18.0232 14.9067L21.3332 17.2567C21.5932 17.4367 21.7732 17.6467 21.8832 17.8967C21.9832 18.1467 22.0432 18.3967 22.0432 18.6767Z" fill="white" stroke="white" stroke-width="1.5" stroke-miterlimit="10"/>
</g>
</g>
</g>
</svg>
