<svg width="25" height="24" viewBox="0 0 25 24" fill="none" xmlns="http://www.w3.org/2000/svg">
<g id="Group">
<path id="Vector" d="M21.7682 20.0003C21.7682 20.2655 21.6628 20.5198 21.4753 20.7074C21.2878 20.8949 21.0334 21.0003 20.7682 21.0003H4.76819C4.50297 21.0003 4.24862 20.8949 4.06108 20.7074C3.87355 20.5198 3.76819 20.2655 3.76819 20.0003V9.49027C3.76808 9.33788 3.80281 9.18749 3.8697 9.05057C3.9366 8.91365 4.03391 8.79384 4.15419 8.70027L12.1542 2.47827C12.3297 2.34172 12.5458 2.26758 12.7682 2.26758C12.9906 2.26758 13.2066 2.34172 13.3822 2.47827L21.3822 8.70027C21.5025 8.79384 21.5998 8.91365 21.6667 9.05057C21.7336 9.18749 21.7683 9.33788 21.7682 9.49027V20.0003ZM19.7682 19.0003V9.97827L12.7682 4.53427L5.76819 9.97827V19.0003H19.7682Z" fill="#0B1215"/>
</g>
</svg>
