<svg width="19" height="19" viewBox="0 0 19 19" fill="none" xmlns="http://www.w3.org/2000/svg">
<path d="M9.77869 18.0046C4.80799 18.0046 0.778687 13.9753 0.778687 9.00464C0.778687 4.03394 4.80799 0.00463867 9.77869 0.00463867C14.7494 0.00463867 18.7787 4.03394 18.7787 9.00464C18.7787 13.9753 14.7494 18.0046 9.77869 18.0046ZM9.77869 16.2046C11.6882 16.2046 13.5196 15.4461 14.8699 14.0958C16.2201 12.7455 16.9787 10.9142 16.9787 9.00464C16.9787 7.09508 16.2201 5.26373 14.8699 3.91347C13.5196 2.56321 11.6882 1.80464 9.77869 1.80464C7.86913 1.80464 6.03778 2.56321 4.68752 3.91347C3.33726 5.26373 2.57869 7.09508 2.57869 9.00464C2.57869 10.9142 3.33726 12.7455 4.68752 14.0958C6.03778 15.4461 7.86913 16.2046 9.77869 16.2046V16.2046ZM6.17869 9.90464H13.3787C13.3787 10.8594 12.9994 11.7751 12.3243 12.4502C11.6491 13.1254 10.7335 13.5046 9.77869 13.5046C8.82391 13.5046 7.90823 13.1254 7.2331 12.4502C6.55797 11.7751 6.17869 10.8594 6.17869 9.90464V9.90464ZM6.17869 8.10464C5.82064 8.10464 5.47727 7.96241 5.22409 7.70923C4.97092 7.45606 4.82869 7.11268 4.82869 6.75464C4.82869 6.3966 4.97092 6.05322 5.22409 5.80004C5.47727 5.54687 5.82064 5.40464 6.17869 5.40464C6.53673 5.40464 6.88011 5.54687 7.13328 5.80004C7.38645 6.05322 7.52869 6.3966 7.52869 6.75464C7.52869 7.11268 7.38645 7.45606 7.13328 7.70923C6.88011 7.96241 6.53673 8.10464 6.17869 8.10464ZM13.3787 8.10464C13.0206 8.10464 12.6773 7.96241 12.4241 7.70923C12.1709 7.45606 12.0287 7.11268 12.0287 6.75464C12.0287 6.3966 12.1709 6.05322 12.4241 5.80004C12.6773 5.54687 13.0206 5.40464 13.3787 5.40464C13.7367 5.40464 14.0801 5.54687 14.3333 5.80004C14.5865 6.05322 14.7287 6.3966 14.7287 6.75464C14.7287 7.11268 14.5865 7.45606 14.3333 7.70923C14.0801 7.96241 13.7367 8.10464 13.3787 8.10464Z" fill="#00389D"/>
</svg>
