<svg width="25" height="24" viewBox="0 0 25 24" fill="none" xmlns="http://www.w3.org/2000/svg">
<g id="Group">
<path id="Vector" d="M7.4757 20.824L2.1847 22L3.3607 16.709C2.58624 15.2604 2.18223 13.6426 2.1847 12C2.1847 6.477 6.6617 2 12.1847 2C17.7077 2 22.1847 6.477 22.1847 12C22.1847 17.523 17.7077 22 12.1847 22C10.5421 22.0025 8.92432 21.5985 7.4757 20.824ZM7.7657 18.711L8.4187 19.061C9.57725 19.6801 10.8711 20.0027 12.1847 20C13.767 20 15.3137 19.5308 16.6293 18.6518C17.9449 17.7727 18.9702 16.5233 19.5757 15.0615C20.1812 13.5997 20.3397 11.9911 20.031 10.4393C19.7223 8.88743 18.9604 7.46197 17.8416 6.34315C16.7227 5.22433 15.2973 4.4624 13.7454 4.15372C12.1936 3.84504 10.585 4.00346 9.12324 4.60896C7.66143 5.21447 6.412 6.23984 5.53295 7.55544C4.6539 8.87103 4.1847 10.4177 4.1847 12C4.1847 13.334 4.5097 14.618 5.1247 15.766L5.4737 16.419L4.8187 19.366L7.7657 18.711ZM7.1847 12H9.1847C9.1847 12.7956 9.50077 13.5587 10.0634 14.1213C10.626 14.6839 11.3891 15 12.1847 15C12.9804 15 13.7434 14.6839 14.306 14.1213C14.8686 13.5587 15.1847 12.7956 15.1847 12H17.1847C17.1847 13.3261 16.6579 14.5979 15.7202 15.5355C14.7826 16.4732 13.5108 17 12.1847 17C10.8586 17 9.58685 16.4732 8.64917 15.5355C7.71149 14.5979 7.1847 13.3261 7.1847 12Z" fill="#0B1215"/>
</g>
</svg>
