<svg width="14" height="15" viewBox="0 0 14 15" fill="none" xmlns="http://www.w3.org/2000/svg">
<path d="M13.3531 10.12C13.2465 9.94 12.9465 9.66 12.1998 9.79333C11.7865 9.86666 11.3665 9.9 10.9465 9.88C9.39314 9.81333 7.98647 9.1 7.00647 8C6.13981 7.03333 5.60647 5.77333 5.5998 4.41333C5.5998 3.65333 5.74647 2.92 6.04647 2.22666C6.33981 1.55333 6.13314 1.2 5.98647 1.05333C5.83314 0.899996 5.47314 0.686663 4.76647 0.979996C2.03981 2.12666 0.353139 4.86 0.553139 7.78666C0.753139 10.54 2.68647 12.8933 5.24647 13.78C5.85981 13.9933 6.50647 14.12 7.17314 14.1467C7.27981 14.1533 7.38647 14.16 7.49314 14.16C9.72647 14.16 11.8198 13.1067 13.1398 11.3133C13.5865 10.6933 13.4665 10.3 13.3531 10.12Z" fill="#002468"/>
</svg>
