<svg width="25" height="24" viewBox="0 0 25 24" fill="none" xmlns="http://www.w3.org/2000/svg">
<path d="M6.98959 7.96942C7.30393 5.14032 9.69524 3 12.5417 3V3C15.3883 3 17.7796 5.14032 18.0939 7.96942L18.3457 10.2356C18.3489 10.2645 18.3505 10.279 18.3522 10.2933C18.4811 11.4169 18.8469 12.5005 19.4253 13.4725C19.4327 13.4849 19.4401 13.4973 19.4551 13.5222L20.0331 14.4856C20.5577 15.3599 20.82 15.797 20.7633 16.1559C20.7257 16.3946 20.6028 16.6117 20.4174 16.7668C20.1388 17 19.6291 17 18.6095 17H6.47398C5.45443 17 4.94466 17 4.66608 16.7668C4.48072 16.6117 4.35783 16.3946 4.32016 16.1559C4.26354 15.797 4.52582 15.3599 5.05037 14.4856L5.6284 13.5222C5.64336 13.4973 5.65084 13.4849 5.65819 13.4725C6.23663 12.5005 6.60239 11.4169 6.73133 10.2933C6.73297 10.279 6.73458 10.2645 6.73779 10.2356L6.98959 7.96942Z" stroke="#0B1215" stroke-width="2"/>
<path d="M9.64397 17.6647C9.8149 18.6215 10.1915 19.467 10.7155 20.0701C11.2394 20.6731 11.8813 21 12.5417 21C13.2021 21 13.8441 20.6731 14.368 20.0701C14.892 19.467 15.2686 18.6215 15.4395 17.6647" stroke="#0B1215" stroke-width="2" stroke-linecap="round"/>
</svg>
