<svg width="20" height="20" viewBox="0 0 20 20" fill="none" xmlns="http://www.w3.org/2000/svg">
<g clip-path="url(#clip0_3023_11935)">
<path d="M6.07617 17.3534L1.667 18.3334L2.647 13.9242C2.00161 12.7171 1.66494 11.369 1.667 10.0001C1.667 5.39758 5.39784 1.66675 10.0003 1.66675C14.6028 1.66675 18.3337 5.39758 18.3337 10.0001C18.3337 14.6026 14.6028 18.3334 10.0003 18.3334C8.63146 18.3355 7.28335 17.9988 6.07617 17.3534V17.3534ZM5.83367 10.0001C5.83367 11.1052 6.27266 12.165 7.05406 12.9464C7.83546 13.7278 8.89527 14.1667 10.0003 14.1667C11.1054 14.1667 12.1652 13.7278 12.9466 12.9464C13.728 12.165 14.167 11.1052 14.167 10.0001H12.5003C12.5003 10.6631 12.2369 11.299 11.7681 11.7678C11.2993 12.2367 10.6634 12.5001 10.0003 12.5001C9.33729 12.5001 8.70141 12.2367 8.23257 11.7678C7.76373 11.299 7.50034 10.6631 7.50034 10.0001H5.83367Z" fill="#0066FF"/>
</g>
<defs>
<clipPath id="clip0_3023_11935">
<rect width="20" height="20" fill="white"/>
</clipPath>
</defs>
</svg>
