<svg width="25" height="25" viewBox="0 0 25 25" fill="none" xmlns="http://www.w3.org/2000/svg">
<path d="M13.9987 9.62801C13.9987 9.62801 14.5698 9.34668 12.4983 9.34668C11.7564 9.34668 11.0311 9.56668 10.4143 9.97885C9.79741 10.391 9.31663 10.9769 9.03271 11.6623C8.7488 12.3477 8.67452 13.1019 8.81926 13.8296C8.96399 14.5572 9.32125 15.2256 9.84585 15.7502C10.3705 16.2748 11.0388 16.6321 11.7665 16.7768C12.4941 16.9215 13.2483 16.8473 13.9338 16.5633C14.6192 16.2794 15.205 15.7986 15.6172 15.1818C16.0294 14.5649 16.2494 13.8397 16.2494 13.0978" stroke="#377DFF" stroke-width="1.50274" stroke-miterlimit="10" stroke-linecap="round"/>
<path d="M12.4954 7.56445L14.372 9.44112L12.4954 11.3178" stroke="#377DFF" stroke-width="1.50274" stroke-linecap="round" stroke-linejoin="round"/>
<path d="M12.4972 3.57812C7.52774 3.57812 3.49588 7.60998 3.49588 12.5795C3.49588 17.549 7.52774 21.5808 12.4972 21.5808C17.4667 21.5808 21.4986 17.549 21.4986 12.5795C21.4986 7.60998 17.4667 3.57812 12.4972 3.57812Z" stroke="#377DFF" stroke-width="1.50274" stroke-miterlimit="10"/>
</svg>
