<svg width="17" height="16" viewBox="0 0 17 16" fill="none" xmlns="http://www.w3.org/2000/svg">
    <g clip-path="url(#clip0_2103_61784)">
        <path
            d="M13.4467 10.6663V4.66634C13.4467 4.31272 13.3062 3.97358 13.0561 3.72353C12.8061 3.47348 12.467 3.33301 12.1133 3.33301H4.11334C3.75971 3.33301 3.42058 3.47348 3.17053 3.72353C2.92048 3.97358 2.78 4.31272 2.78 4.66634V10.6663M13.4467 10.6663H2.78M13.4467 10.6663L14.3 12.3663C14.3514 12.4683 14.3757 12.5818 14.3707 12.6959C14.3656 12.81 14.3313 12.9209 14.2711 13.0179C14.2109 13.115 14.1267 13.1949 14.0267 13.2501C13.9267 13.3052 13.8142 13.3338 13.7 13.333H2.52667C2.41246 13.3338 2.29997 13.3052 2.19997 13.2501C2.09997 13.1949 2.01582 13.115 1.95559 13.0179C1.89536 12.9209 1.86107 12.81 1.856 12.6959C1.85094 12.5818 1.87527 12.4683 1.92667 12.3663L2.78 10.6663"
            stroke="#0066FF" stroke-width="1.75" stroke-linecap="round" stroke-linejoin="round" />
    </g>
    <defs>
        <clipPath id="clip0_2103_61784">
            <rect width="16" height="16" fill="white" transform="translate(0.113281)" />
        </clipPath>
    </defs>
</svg>