<svg width="25" height="24" viewBox="0 0 25 24" fill="none" xmlns="http://www.w3.org/2000/svg">
<g id="Group">
<path id="Vector" d="M18.5074 16.617L22.7904 20.899L21.3754 22.314L17.0934 18.031C15.5002 19.3082 13.5184 20.0029 11.4764 20C6.50844 20 2.47644 15.968 2.47644 11C2.47644 6.032 6.50844 2 11.4764 2C16.4444 2 20.4764 6.032 20.4764 11C20.4793 13.042 19.7847 15.0237 18.5074 16.617ZM16.5014 15.875C17.7706 14.5699 18.4793 12.8204 18.4764 11C18.4764 7.132 15.3434 4 11.4764 4C7.60844 4 4.47644 7.132 4.47644 11C4.47644 14.867 7.60844 18 11.4764 18C13.2969 18.0029 15.0463 17.2941 16.3514 16.025L16.5014 15.875Z" fill="#0B1215"/>
</g>
</svg>
