<svg width="20" height="25" viewBox="0 0 20 25" fill="none" xmlns="http://www.w3.org/2000/svg">
<g clip-path="url(#clip0_1238_2411)">
<path d="M9.87724 24.2564C9.3776 23.8405 8.90096 23.3873 8.36976 23.0209C8.00011 22.7657 7.56626 22.5938 7.14098 22.447C6.58999 22.2569 5.69074 21.6969 5.16221 21.1136C5.69823 21.4545 6.21552 21.8376 6.84836 21.951C6.10853 21.112 5.3703 20.274 4.65454 19.4622C4.67327 19.5211 4.70215 19.6362 4.74549 19.7452C4.7931 19.8648 4.84927 19.981 4.90918 20.0944C4.96802 20.2067 5.03596 20.3141 5.10016 20.423C5.08357 20.4392 5.06699 20.4558 5.05041 20.472C4.76421 20.1611 4.47801 19.8503 4.18219 19.5289C3.9543 19.793 4.06503 20.0972 4.11318 20.3685C4.30576 21.4528 4.55718 22.0561 5.15205 23.1582C4.89153 22.8201 4.60961 22.4976 4.37691 22.1401C4.13992 21.7759 3.95162 21.3772 3.69538 20.9896C3.75209 21.4823 3.80933 21.9744 3.86603 22.4671C3.85159 22.4726 3.83661 22.4782 3.82217 22.4843C3.58037 21.7609 3.33911 21.0375 3.08394 20.2746C3.04435 20.5315 3.00905 20.7583 2.97427 20.9852C2.96571 20.4942 2.96251 20.0116 2.4757 19.6796C1.63049 19.7552 1.41116 19.4149 1.58448 18.146C1.15759 18.24 0.71519 18.2078 0.372824 18.5675C0.31077 18.6326 0.139052 18.5853 0.0181538 18.5898C0.0192237 18.4652 -0.0310614 18.2889 0.0288527 18.2239C0.743543 17.4571 1.07468 16.4729 1.47214 15.5271C2.0868 14.0652 2.35053 12.5089 2.60035 10.9491C2.82395 9.55069 2.94592 8.14557 3.00423 6.72766C3.0374 5.92473 3.47819 5.24357 3.96125 4.62581C4.9156 3.40529 6.18931 2.6891 7.59248 2.19089C7.76794 2.12861 7.84176 2.063 7.85781 1.85615C7.92896 0.943678 8.47942 0.3615 9.36636 0.286434C9.79807 0.249735 10.2453 0.236946 10.6684 0.315904C11.4281 0.457139 11.8817 1.04432 11.9459 1.88061C11.9598 2.06133 12.0218 2.12805 12.1786 2.18255C13.585 2.67353 14.8565 3.38916 15.82 4.60078C16.2501 5.14182 16.5769 5.74234 16.754 6.42405C16.7882 6.55695 16.8144 6.69707 16.8144 6.83386C16.8128 8.34853 17.0188 9.84039 17.2574 11.3289C17.5045 12.8719 17.8196 14.3977 18.4503 15.8301C18.7092 16.4178 18.9895 16.9961 19.2832 17.5655C19.3897 17.7724 19.5593 17.9459 19.7069 18.1288C19.8208 18.2689 19.9476 18.4107 19.7813 18.5831C19.6315 18.7393 19.4865 18.6476 19.3629 18.5214C19.0489 18.1989 18.6268 18.2461 18.201 18.131C18.2909 18.5369 18.4171 18.9117 18.2149 19.2815C18.0159 19.6446 17.7399 19.7597 17.3146 19.6657C16.8925 19.9982 16.8075 20.4453 16.8968 20.9546C16.8727 20.9541 16.8487 20.9529 16.8246 20.9524C16.7898 20.7316 16.7551 20.5109 16.7165 20.269C16.4646 21.0269 16.2223 21.7564 15.9794 22.4854C15.9639 22.481 15.9484 22.476 15.9328 22.4715C15.9917 21.9772 16.05 21.4829 16.1088 20.9885C16.0848 20.9807 16.0602 20.9724 16.0361 20.9646C15.7199 21.7815 15.2524 22.4899 14.627 23.0915C14.6688 23.0148 14.7083 22.9369 14.7533 22.8618C15.2845 21.9688 15.66 21.0186 15.7301 19.9599C15.7392 19.8192 15.6894 19.674 15.659 19.4828C15.3225 19.8514 15.0368 20.1645 14.7511 20.4775C14.7388 20.4675 14.7271 20.4581 14.7148 20.4481C14.8731 20.1072 15.032 19.7669 15.2069 19.391C14.4371 20.2662 13.7005 21.1042 12.9115 22.0016C13.241 21.8649 13.5347 21.7659 13.8075 21.6235C14.0921 21.4751 14.3558 21.2844 14.6559 21.1414C14.4912 21.2816 14.3296 21.425 14.1616 21.5601C13.6379 21.9805 13.0875 22.3275 12.4279 22.5026C11.6789 22.7017 11.0942 23.2272 10.5106 23.7309C10.3121 23.9022 10.1212 24.0818 9.92645 24.2581C10.0078 24.1068 10.0591 23.9222 10.1752 23.8105C10.7225 23.2828 11.251 22.7217 11.8544 22.2719C13.0174 21.405 14.0504 20.4214 14.8672 19.192C15.1443 18.7749 15.3198 18.3762 15.1352 17.8636C15.063 17.6634 15.0678 17.4332 15.0379 17.2169C15.0202 17.2197 15.002 17.2224 14.9844 17.2258V18.5325C14.1959 18.8644 13.3924 19.1647 12.621 19.5378C11.8469 19.912 11.106 20.3596 10.3528 20.7733C10.3592 20.7884 10.3442 20.7539 10.3202 20.6966C10.1736 20.9518 10.0425 21.1809 9.89864 21.4323C9.75634 21.1815 9.62581 20.9513 9.48833 20.71C9.4573 20.7633 9.43644 20.8 9.40969 20.8462C8.70624 20.2818 7.92949 19.862 7.08428 19.5589C7.14526 19.6512 7.20624 19.743 7.30788 19.8959C7.10407 19.7663 6.96552 19.6785 6.82697 19.5901C6.8168 19.6034 6.80664 19.6173 6.79647 19.6307C7.18538 20.0438 7.57429 20.4575 7.9632 20.8707C7.94608 20.8907 7.92842 20.9112 7.91131 20.9313C7.29023 20.4508 6.66916 19.9704 6.04808 19.49C6.03364 19.5033 6.01866 19.5167 6.00422 19.53C6.25511 19.8648 6.506 20.1995 6.75689 20.5348L6.73496 20.5587C6.41666 20.3235 6.09837 20.0883 5.78061 19.8531C5.79773 20.0127 5.85764 20.1322 5.92237 20.2484C6.40436 21.1186 7.17789 21.6658 7.92468 22.2558C8.51794 22.724 9.05877 23.265 9.60762 23.791C9.73066 23.9094 9.78844 24.1007 9.8767 24.2586L9.87724 24.2564ZM5.159 8.81227C4.9493 8.96907 4.75886 9.0914 4.59303 9.24376C4.51974 9.31104 4.45608 9.43837 4.45822 9.53679C4.48657 10.8424 4.52776 12.1474 4.56628 13.4525C4.56842 13.517 4.57109 13.5826 4.58286 13.6454C4.84606 15.0778 5.1146 16.5096 5.36816 17.9442C5.39759 18.1099 5.44573 18.2005 5.59445 18.2723C6.75475 18.8355 7.90863 19.4127 9.07 19.9732C9.18609 20.0294 9.35085 20.0466 9.47175 20.0088C9.76383 19.917 10.0393 19.9104 10.3298 20.0105C10.4363 20.0472 10.5834 20.0455 10.6834 19.9971C11.8769 19.421 13.0666 18.8355 14.252 18.2428C14.3296 18.2039 14.405 18.0893 14.4211 17.9981C14.6062 16.9728 14.7774 15.9441 14.9582 14.9176C15.0443 14.4278 15.2026 13.944 15.2278 13.4513C15.3193 11.6575 15.3637 9.86152 15.4386 8.06661C15.4487 7.82195 15.3909 7.6518 15.2144 7.48666C14.5473 6.86222 13.754 6.50969 12.8986 6.28616C12.5787 6.20275 12.2524 6.14714 11.8908 6.07097C11.9881 6.63257 12.0727 7.11967 12.1652 7.65125C11.9025 7.72742 11.6565 7.7986 11.4104 7.87033C11.3451 7.60176 11.297 7.40047 11.2483 7.19974C11.2221 7.30483 11.2328 7.40325 11.2467 7.50167C11.2965 7.8542 11.2761 7.89146 10.9316 7.89702C10.2993 7.90758 9.667 7.91481 9.0347 7.90369C8.58052 7.8959 8.58106 7.88145 8.51954 7.39936C8.46926 7.57284 8.43234 7.70018 8.37938 7.88367C8.12314 7.79804 7.87921 7.7163 7.63955 7.63623C7.7337 7.09409 7.81822 6.60922 7.90382 6.11823C7.2453 6.111 6.04541 6.6348 5.58268 7.12912C5.90953 7.0535 6.20857 6.98455 6.5076 6.91504C6.51188 6.92839 6.51563 6.94229 6.51991 6.95563C6.09141 7.18083 5.66292 7.40659 5.23443 7.63178C5.24245 7.6518 5.25048 7.67182 5.25904 7.69184C5.51955 7.61455 5.78007 7.53726 6.04006 7.45997C6.04648 7.47331 6.05343 7.4861 6.05985 7.49944C5.71909 7.74744 5.37886 7.99488 5.0381 8.24288C5.0472 8.259 5.05682 8.27513 5.06592 8.29181C5.28578 8.19839 5.50565 8.10553 5.72551 8.01212C5.73246 8.02713 5.73995 8.04214 5.74691 8.0566C5.49709 8.2907 5.24727 8.52423 4.97444 8.78002C5.06003 8.79447 5.09427 8.80003 5.15953 8.81115L5.159 8.81227ZM16.7358 10.0078L16.7786 9.99497C16.7786 9.91268 16.7856 9.82983 16.7775 9.74809C16.6871 8.81838 16.5587 7.89146 16.5127 6.95953C16.4689 6.06819 16.0757 5.37535 15.5332 4.74091C15.2797 4.44454 15.0299 4.14094 14.6286 4.0414C13.8444 3.84568 13.0714 3.57766 12.2775 3.45033C10.2159 3.12059 8.15845 3.18732 6.12832 3.7239C5.39438 3.91796 4.65989 4.12648 4.18967 4.82987C3.97677 5.14849 3.75744 5.46265 3.54132 5.77849C3.56058 5.79239 3.57983 5.80685 3.59909 5.82075C3.91097 5.65838 4.22284 5.49546 4.53472 5.3331C4.53953 5.34477 4.54435 5.35645 4.54916 5.36757C4.21589 5.63614 3.88262 5.90471 3.54988 6.17272C3.56111 6.18996 3.57235 6.20664 3.58358 6.22388C4.05273 5.98033 4.52134 5.73623 4.99049 5.49268C5.00066 5.51214 5.01135 5.5316 5.02152 5.55106C4.46731 5.88525 3.93611 6.24946 3.47285 6.75991C4.10355 6.39125 4.70109 6.04261 5.29862 5.69341C5.3136 5.71955 5.32804 5.74624 5.34302 5.77237C4.59196 6.14603 3.94253 6.65759 3.40651 7.31595C3.31718 7.42605 3.25994 7.58619 3.23907 7.73132C3.17702 8.16114 3.13743 8.5943 3.09464 9.0269C3.06308 9.34996 3.04007 9.67414 3.01333 9.9972C3.12834 9.72807 3.21179 9.4545 3.24549 9.17481C3.39314 7.95985 4.07038 7.14024 5.03971 6.53137C5.81324 6.04594 6.66327 5.7707 7.54701 5.63447C9.2139 5.37758 10.8851 5.37202 12.5472 5.69286C13.5475 5.8858 14.4874 6.24445 15.293 6.91282C15.9157 7.42938 16.3731 8.05771 16.5004 8.90735C16.5561 9.27768 16.6566 9.64077 16.7363 10.0072L16.7358 10.0078ZM8.01829 2.91764C7.76099 2.97157 7.52186 3.02162 7.28274 3.07166C9.57767 2.9371 11.8598 2.89261 14.1039 3.54486C13.3501 3.00049 12.5161 2.6524 11.6591 2.37939C11.6495 1.22392 11.2162 0.671216 10.2185 0.516636C8.96034 0.321464 8.11726 1.06045 8.14615 2.33157C8.14615 2.34714 8.13438 2.36326 8.13063 2.37216C7.83909 2.52118 7.55289 2.66686 7.26669 2.8131C7.2699 2.83645 7.27311 2.85925 7.27632 2.88261C7.35175 2.89428 7.42664 2.91374 7.50207 2.91597C7.6679 2.92097 7.83374 2.91764 8.01883 2.91764H8.01829ZM15.085 15.6727C15.3942 15.7056 15.6097 15.6044 15.7461 15.402C15.8858 15.1945 15.9762 14.9499 16.081 14.718C16.1698 14.5212 16.2399 14.3154 16.3319 14.1208C16.5084 13.7488 16.7074 13.3874 16.8695 13.0093C16.9214 12.8875 16.9182 12.7179 16.8861 12.5839C16.7176 11.8766 16.532 11.1732 16.3528 10.4687C16.2838 10.1974 16.127 10.1434 15.9414 10.3469C15.8462 10.4509 15.7617 10.5844 15.7215 10.7201C15.6359 11.0103 15.5776 11.3095 15.5161 11.6064C15.4369 11.9895 15.5044 12.3548 15.7365 12.6556C15.927 12.9025 15.8735 13.0766 15.6969 13.2856C15.5461 13.4641 15.3481 13.6549 15.3075 13.8678C15.1957 14.4528 15.1561 15.0533 15.0844 15.6727H15.085ZM16.9284 14.4222C16.9171 14.4261 16.9064 14.4305 16.8952 14.4344C16.9439 14.6313 16.9926 14.8276 17.0418 15.0244C17.03 15.0283 17.0188 15.0322 17.007 15.0361C16.9268 14.8542 16.8465 14.673 16.7663 14.4912C16.7513 14.4978 16.7358 14.5039 16.7208 14.5106L16.7727 14.8926C16.762 14.8948 16.7518 14.8971 16.7412 14.8993C16.6673 14.708 16.593 14.5167 16.4881 14.2465C16.3127 14.7303 16.1655 15.1356 16.0393 15.4848C16.6358 16.1699 17.2253 16.8477 17.8169 17.5233C17.8565 17.5689 17.9105 17.6222 17.9635 17.6295C18.2294 17.6651 18.4968 17.6867 18.8007 17.7173C18.033 16.295 17.543 14.797 17.0354 13.2979C16.8583 14.0118 17.2547 14.6346 17.3264 15.3113C17.1937 15.0149 17.0616 14.7186 16.9289 14.4228L16.9284 14.4222ZM2.81165 13.2907C2.77902 13.2923 2.74585 13.2934 2.71322 13.2951C2.26226 14.8098 1.75834 16.3027 1.00192 17.7223C1.26512 17.6923 1.48712 17.6834 1.70163 17.6361C1.81825 17.6106 1.94611 17.5444 2.02742 17.4554C2.46928 16.9733 2.89457 16.4757 3.33322 15.9902C3.48354 15.824 3.6558 15.6789 3.78739 15.5532C3.62691 15.1178 3.4798 14.7191 3.30648 14.2487C3.20216 14.5256 3.13315 14.7086 3.06415 14.8915C3.05077 14.8859 3.03686 14.8798 3.02349 14.8743C3.04542 14.7419 3.06789 14.6101 3.08982 14.4778C3.07538 14.4734 3.06094 14.4684 3.04649 14.4639C2.96304 14.6513 2.87959 14.8387 2.79614 15.0261C2.7849 15.0211 2.7742 15.0161 2.76297 15.0111C2.80951 14.8192 2.85659 14.6279 2.90313 14.4361C2.89189 14.4328 2.88066 14.43 2.86996 14.4266C2.73836 14.7208 2.6073 15.0149 2.4757 15.3091C2.58055 14.7814 2.72392 14.2693 2.84 13.7505C2.8721 13.6076 2.82342 13.4452 2.81165 13.2912V13.2907ZM3.82591 14.048C3.84196 14.0508 3.85801 14.0535 3.87352 14.0563C3.87673 14.1292 3.86282 14.2092 3.88796 14.2726C3.92541 14.3666 3.99709 14.5234 4.0431 14.5195C4.13992 14.5106 4.24477 14.43 4.31646 14.3499C4.36353 14.2976 4.3753 14.1942 4.37316 14.1147C4.3646 13.7961 4.31485 13.4914 4.08215 13.2506C3.91685 13.0794 3.88315 12.9081 4.04256 12.6896C4.41596 12.1786 4.3202 10.8502 3.89385 10.3725C3.88155 10.3592 3.86924 10.3458 3.85587 10.3336C3.6681 10.1601 3.51618 10.2035 3.45252 10.4543C3.2685 11.1766 3.08233 11.8978 2.91062 12.6234C2.88119 12.748 2.88333 12.9081 2.93469 13.0199C3.12138 13.4269 3.33376 13.8211 3.54025 14.2181C3.63065 14.3916 3.72962 14.5601 3.85961 14.7936C3.8457 14.4861 3.83607 14.2671 3.82645 14.0485L3.82591 14.048ZM15.6017 17.4754C15.6418 18.1082 15.7665 18.7193 16.0527 19.2804C16.1297 19.4316 16.2404 19.5734 16.3613 19.6902C16.4951 19.8192 16.6277 19.7408 16.7299 19.6162C16.83 19.4944 16.8658 19.3893 16.7395 19.2325C16.4608 18.8867 16.203 18.5214 15.9569 18.1499C15.8178 17.9397 15.7189 17.7012 15.6022 17.4749L15.6017 17.4754ZM16.6641 16.9077C16.9332 17.5994 17.2574 18.2572 17.3216 19.0085C17.3275 19.0746 17.4259 19.1769 17.4879 19.1825C17.5783 19.1903 17.7426 19.1425 17.7554 19.088C17.7987 18.9023 17.8485 18.6809 17.7902 18.5125C17.5671 17.8675 17.1183 17.3804 16.6641 16.9077V16.9077ZM4.25654 17.4582C4.21375 17.4843 4.19181 17.4899 4.18486 17.5032C3.8671 18.146 3.53329 18.7766 3.0283 19.2898C2.98872 19.3304 2.98444 19.4477 3.00905 19.5106C3.12994 19.8203 3.39581 19.8336 3.60123 19.5284C4.01475 18.9139 4.13511 18.1983 4.25654 17.4582ZM3.14278 16.9116C2.6731 17.3998 2.20395 17.8919 1.99746 18.5714C1.95359 18.716 1.97232 18.9017 2.021 19.0474C2.04561 19.1219 2.21037 19.1997 2.29436 19.1831C2.37246 19.1675 2.45858 19.0379 2.48747 18.9412C2.55809 18.7049 2.57627 18.4502 2.65491 18.2172C2.80309 17.7768 2.97855 17.3464 3.14278 16.9116V16.9116ZM15.89 8.38689C15.8526 8.388 15.8152 8.38856 15.7782 8.38967C15.7103 9.02857 15.6429 9.66746 15.5755 10.3041C15.8141 10.1612 16.0131 10.0422 16.2287 9.91323C16.1201 9.4228 16.0051 8.90513 15.8906 8.38745L15.89 8.38689ZM3.57395 9.91101C3.80077 10.0495 3.9987 10.1696 4.23087 10.3108C4.15918 9.66413 4.08857 9.02468 4.01796 8.38522C3.98212 8.38522 3.94681 8.38467 3.91097 8.38411C3.79542 8.90735 3.67987 9.43003 3.57395 9.91045V9.91101ZM15.7381 16.1893C15.713 16.2021 15.6878 16.2149 15.6627 16.2277C15.8836 16.9778 16.1907 17.6845 16.6288 18.3256C16.6598 18.3101 16.6903 18.2945 16.7214 18.2789C16.3934 17.5822 16.066 16.886 15.7381 16.1893V16.1893ZM4.06343 16.1865C3.7355 16.8833 3.40812 17.58 3.08019 18.2767C3.10266 18.2878 3.12513 18.2995 3.1476 18.3106C3.46429 17.9965 4.03668 16.7581 4.06343 16.1865V16.1865Z" fill="#00389D"/>
<path d="M9.90348 22.368C9.68308 22.165 9.47125 21.9699 9.25994 21.7747C9.26476 21.7652 9.26903 21.7558 9.27385 21.7463C9.48515 21.8281 9.69592 21.971 9.9083 21.9738C10.1143 21.9765 10.3213 21.8347 10.5513 21.7942C10.3395 21.9821 10.1271 22.17 9.90402 22.3674L9.90348 22.368Z" fill="#00389D"/>
<path d="M7.4363 17.9804C7.34376 17.5628 7.25924 17.2236 7.19504 16.88C7.11373 16.4462 7.25977 16.1126 7.64012 15.9469C8.68862 15.4899 9.77563 15.3158 10.9022 15.5571C11.2318 15.6278 11.5607 15.7156 11.879 15.8285C12.5771 16.0759 12.7451 16.4212 12.5606 17.1713C12.5012 17.4127 12.4354 17.6523 12.3589 17.9426C12.2824 17.6873 12.2284 17.471 12.1535 17.2625C11.8844 16.5113 11.5367 16.2906 10.7947 16.4724C10.1902 16.6208 9.60712 16.6186 9.00263 16.4724C8.26387 16.2928 7.90652 16.5208 7.6444 17.2653C7.57164 17.4722 7.52029 17.6879 7.43523 17.9809L7.4363 17.9804Z" fill="#00389D"/>
<path d="M14.7993 9.78418C14.7678 9.77139 14.7325 9.76416 14.7052 9.74525C14.2574 9.43665 13.8669 9.57232 13.4411 9.84479C12.7152 10.3091 11.9566 10.7183 11.2109 11.1493C11.1499 11.1843 11.0852 11.2132 10.99 11.2616C10.8482 10.6889 10.7107 10.1339 10.5577 9.51616C10.8236 9.6991 11.0445 9.83422 11.2467 9.99547C11.3981 10.1156 11.5367 10.1284 11.7121 10.0644C12.4151 9.80753 13.1239 9.56732 13.8268 9.30932C13.9851 9.25093 14.106 9.26539 14.2414 9.36381C14.4297 9.50059 14.6308 9.61903 14.8266 9.74525C14.8175 9.75804 14.8079 9.77139 14.7988 9.78418H14.7993Z" fill="#00389D"/>
<path d="M9.19789 9.61843C9.07967 10.1711 8.96091 10.7238 8.83787 11.3005C7.91722 10.8067 7.01156 10.338 6.12355 9.83529C5.8229 9.66514 5.56185 9.60564 5.2687 9.81027C5.20504 9.85475 5.12587 9.87421 5.03065 9.91536C5.35964 9.48609 5.7111 9.36432 6.16581 9.50667C6.81951 9.71129 7.47482 9.91036 8.12585 10.1255C8.28045 10.1767 8.39119 10.1522 8.51476 10.0521C8.71697 9.88867 8.93095 9.74132 9.14011 9.58674C9.15937 9.5973 9.17917 9.60787 9.19842 9.61899L9.19789 9.61843Z" fill="#00389D"/>
<path d="M9.09251 12.8918C8.90688 13.3494 8.72125 13.8076 8.52974 14.2797C9.44664 14.4938 10.3416 14.5038 11.2687 14.278C11.0804 13.8115 10.8942 13.3494 10.708 12.8874C10.7193 12.8796 10.7305 12.8723 10.7412 12.8646C11.0809 13.3817 11.4206 13.8988 11.7721 14.4337C11.1606 14.7529 10.4053 14.66 9.91098 15.2761C9.40706 14.6834 8.66187 14.7373 8.02368 14.4437C8.37514 13.9066 8.71751 13.3833 9.05987 12.8601C9.07057 12.8707 9.08074 12.8818 9.09144 12.8924L9.09251 12.8918Z" fill="#00389D"/>
<path d="M7.71555 11.8993C7.8862 11.7764 7.99961 11.6941 8.16009 11.5779C7.89476 11.5062 7.68346 11.4489 7.47269 11.3917C7.48285 11.4178 7.49301 11.4434 7.50371 11.4695C7.36623 11.5713 7.2234 11.7592 7.09287 11.7503C6.96074 11.7414 6.84091 11.5379 6.71574 11.4195L6.76174 11.331C6.51887 11.3444 6.27654 11.3577 5.95183 11.375C6.10001 11.5868 6.20005 11.7308 6.29741 11.8699C5.83521 11.8448 5.38104 11.4089 5.32701 10.9318C6.24231 10.7066 8.1387 10.9646 8.57789 11.7798C8.30774 11.817 8.05043 11.8532 7.71609 11.8993H7.71555Z" fill="#00389D"/>
<path d="M12.314 11.3955C12.1101 11.4506 11.9063 11.5051 11.6463 11.5751C11.7945 11.6869 11.8972 11.7642 12.0636 11.8893C11.7469 11.8509 11.4992 11.8203 11.2483 11.7898C11.5383 10.9941 13.5732 10.6921 14.4746 10.9351C14.4195 11.4055 14.0194 11.7964 13.4951 11.8854C13.5994 11.738 13.7005 11.5957 13.8525 11.3816C13.5363 11.3605 13.2956 11.3444 13.0554 11.3277C13.0704 11.3566 13.0859 11.3855 13.1009 11.4144C12.9671 11.5351 12.8441 11.7275 12.6954 11.7519C12.583 11.7703 12.4381 11.574 12.3075 11.4728C12.3097 11.4467 12.3118 11.4211 12.3145 11.395L12.314 11.3955Z" fill="#00389D"/>
<path d="M11.5196 17.0412C11.3607 17.1568 11.2162 17.3248 11.0402 17.3781C10.2817 17.6083 9.51083 17.61 8.75281 17.3748C8.58483 17.3225 8.44682 17.1668 8.31629 17.0217C9.38619 17.3392 10.4325 17.3559 11.4773 16.9678C11.4917 16.9922 11.5056 17.0167 11.5201 17.0412H11.5196Z" fill="#00389D"/>
<path d="M9.46857 17.6382H10.3368C10.3796 18.1008 10.2512 18.5312 9.90295 18.9026C9.55416 18.5434 9.41989 18.1136 9.46857 17.6382Z" fill="#00389D"/>
<path d="M10.4465 11.0825C9.9757 11.4834 9.85748 11.4845 9.38298 11.0825H10.4465Z" fill="#00389D"/>
<path d="M11.1997 12.1602C11.3933 12.4226 11.587 12.6851 11.7806 12.9475C11.7635 12.962 11.7464 12.9764 11.7287 12.9909C11.5265 12.7318 11.3238 12.4721 11.1216 12.213C11.1478 12.1952 11.1734 12.1779 11.1997 12.1602V12.1602Z" fill="#00389D"/>
<path d="M8.67846 12.2091C8.48855 12.4627 8.29864 12.7168 8.10874 12.9704C8.08841 12.9542 8.06808 12.9387 8.04775 12.9225C8.23498 12.6634 8.42168 12.4049 8.60891 12.1458C8.63191 12.1669 8.65545 12.188 8.67846 12.2091V12.2091Z" fill="#00389D"/>
<path d="M9.8976 2.22197C9.49532 2.2203 9.18719 1.90113 9.18719 1.48577C9.18719 1.06874 9.49425 0.759018 9.90509 0.761242C10.317 0.763467 10.6192 1.0743 10.6166 1.49244C10.6139 1.90391 10.2993 2.22364 9.89813 2.22142L9.8976 2.22197Z" fill="#00389D"/>
<path d="M16.0425 11.7192C16.3887 12.1518 16.4544 12.5911 16.3426 13.0704C16.3063 12.6362 16.2175 12.2341 15.7681 11.9795C15.8906 11.9595 15.9725 11.9461 16.0586 11.9322C16.0548 11.8816 16.0506 11.8254 16.0425 11.7192Z" fill="#00389D"/>
<path d="M3.46807 13.0759C3.34182 12.5949 3.41618 12.1595 3.75105 11.7241C3.74571 11.8231 3.74303 11.8737 3.74036 11.9315C3.81953 11.9438 3.90191 11.9565 4.02548 11.9755C3.59538 12.2373 3.48198 12.6299 3.46807 13.0759V13.0759Z" fill="#00389D"/>
</g>
<defs>
<clipPath id="clip0_1238_2411">
<rect width="19.8621" height="24" fill="white" transform="translate(0 0.256348)"/>
</clipPath>
</defs>
</svg>
